<?xml version="1.0" encoding="utf-8"?>
<!-- Generator: Adobe Illustrator 23.0.4, SVG Export Plug-In . SVG Version: 6.00 Build 0)  -->
<svg version="1.1" id="bandcamp" xmlns="http://www.w3.org/2000/svg" xmlns:xlink="http://www.w3.org/1999/xlink" x="0px" y="0px"
	 viewBox="0 0 104.47 104.47" style="enable-background:new 0 0 104.47 104.47;" xml:space="preserve">
<style type="text/css">
	.st0{fill:#FFFFFF;}
</style>
<path id="XMLID_2_" class="st0" d="M99,13.57c-1.14-3.94-4.17-6.97-8.11-8.11c-25.3-7.29-52.03-7.29-77.32,0
	C9.63,6.6,6.6,9.63,5.47,13.57c-7.29,25.29-7.29,52.03,0,77.32c1.12,3.88,4.22,6.99,8.11,8.11c12.65,3.64,25.65,5.47,38.66,5.47
	c13,0,26.01-1.82,38.66-5.47c3.88-1.12,6.99-4.22,8.11-8.11C106.29,65.6,106.29,38.86,99,13.57z M92.29,88.96
	c-0.46,1.59-1.74,2.87-3.33,3.33c-24.03,6.92-49.43,6.92-73.46,0c-1.59-0.46-2.87-1.74-3.33-3.33c-6.92-24.03-6.92-49.43,0-73.46
	c0.46-1.59,1.74-2.87,3.33-3.33c12.01-3.46,24.37-5.19,36.73-5.19c12.36,0,24.71,1.73,36.73,5.19c1.6,0.46,2.87,1.74,3.33,3.33
	C99.22,39.53,99.22,64.93,92.29,88.96z"/>
<polygon id="XMLID_5_" class="st0" points="40.47,36.03 25.49,68.43 64,68.43 78.97,36.03 "/>
</svg>
