<?xml version="1.0" encoding="utf-8"?>
<!-- Generator: Adobe Illustrator 23.0.4, SVG Export Plug-In . SVG Version: 6.00 Build 0)  -->
<svg version="1.1" id="behance" xmlns="http://www.w3.org/2000/svg" xmlns:xlink="http://www.w3.org/1999/xlink" x="0px" y="0px"
	 viewBox="-2.24 358.93 104.47 104.47" style="enable-background:new -2.24 358.93 104.47 104.47;" xml:space="preserve">
<style type="text/css">
	.st0{fill:#FFFFFF;}
</style>
<path class="st0" d="M96.76,372.5c-1.14-3.94-4.17-6.97-8.11-8.11c-25.3-7.29-52.03-7.29-77.32,0c-3.94,1.14-6.97,4.17-8.1,8.11
	c-7.29,25.29-7.29,52.03,0,77.32c1.12,3.88,4.22,6.99,8.11,8.11c12.65,3.64,25.65,5.47,38.66,5.47c13,0,26.01-1.82,38.66-5.47
	c3.88-1.12,6.99-4.22,8.11-8.11C104.05,424.53,104.05,397.79,96.76,372.5z M90.05,447.89c-0.46,1.59-1.74,2.87-3.33,3.33
	c-24.03,6.92-49.43,6.92-73.46,0c-1.59-0.46-2.87-1.74-3.33-3.33c-6.92-24.03-6.92-49.43,0-73.46c0.46-1.59,1.74-2.87,3.33-3.33
	c12.01-3.46,24.37-5.19,36.73-5.19c12.36,0,24.71,1.73,36.73,5.19c1.6,0.46,2.87,1.74,3.33,3.33
	C96.97,398.46,96.97,423.86,90.05,447.89z"/>
<path id="Be" class="st0" d="M79.12,395.65H62.05v-4.24h17.07L79.12,395.65L79.12,395.65z M50.69,413.03
	c1.1,1.71,1.65,3.78,1.65,6.21c0,2.51-0.62,4.77-1.88,6.76c-0.8,1.32-1.8,2.43-3,3.33c-1.35,1.04-2.95,1.75-4.78,2.13
	c-1.84,0.38-3.84,0.57-5.98,0.57H17.62v-42.37h20.46c5.16,0.08,8.82,1.58,10.97,4.51c1.3,1.8,1.94,3.96,1.94,6.47
	c0,2.59-0.65,4.66-1.96,6.24c-0.73,0.88-1.8,1.69-3.23,2.41C47.96,410.08,49.6,411.32,50.69,413.03z M27.39,406.36h8.97
	c1.84,0,3.33-0.35,4.48-1.05c1.15-0.7,1.72-1.94,1.72-3.73c0-1.97-0.76-3.28-2.28-3.91c-1.31-0.44-2.98-0.66-5-0.66h-7.89V406.36z
	 M43.42,418.64c0-2.2-0.9-3.72-2.7-4.54c-1-0.46-2.42-0.7-4.24-0.72h-9.1v11.29h8.95c1.84,0,3.26-0.24,4.29-0.74
	C42.49,423,43.42,421.25,43.42,418.64z M85.45,411.74c0.21,1.39,0.3,3.4,0.26,6.03h-22.1c0.12,3.05,1.17,5.18,3.17,6.4
	c1.2,0.77,2.66,1.14,4.37,1.14c1.8,0,3.27-0.46,4.4-1.39c0.62-0.5,1.16-1.2,1.63-2.08h8.1c-0.21,1.8-1.19,3.63-2.94,5.49
	c-2.72,2.95-6.52,4.43-11.42,4.43c-4.04,0-7.6-1.25-10.69-3.74c-3.08-2.5-4.63-6.54-4.63-12.16c0-5.27,1.39-9.3,4.18-12.1
	c2.8-2.81,6.41-4.21,10.86-4.21c2.64,0,5.02,0.47,7.14,1.42c2.11,0.95,3.86,2.44,5.24,4.49C84.27,407.27,85.07,409.36,85.45,411.74z
	 M77.47,412.53c-0.15-2.11-0.85-3.71-2.12-4.8c-1.26-1.09-2.83-1.64-4.7-1.64c-2.04,0-3.62,0.59-4.74,1.74
	c-1.13,1.15-1.83,2.72-2.12,4.7L77.47,412.53L77.47,412.53z"/>
</svg>
