<?xml version="1.0" encoding="utf-8"?>
<!-- Generator: Adobe Illustrator 23.0.4, SVG Export Plug-In . SVG Version: 6.00 Build 0)  -->
<svg version="1.1" id="facebook" xmlns="http://www.w3.org/2000/svg" xmlns:xlink="http://www.w3.org/1999/xlink" x="0px" y="0px"
	 viewBox="0 0 104.47 104.47" style="enable-background:new 0 0 104.47 104.47;" xml:space="preserve">
<style type="text/css">
	.st0{fill:#FFFFFF;}
</style>
<path id="F_1_" class="st0" d="M99,13.57c-1.14-3.94-4.17-6.97-8.11-8.11c-25.29-7.29-52.03-7.29-77.32,0
	c-3.88,1.12-6.99,4.23-8.11,8.11c-7.29,25.29-7.29,52.03,0,77.32c1.13,3.94,4.16,6.97,8.11,8.11c12.65,3.64,25.65,5.47,38.66,5.47
	c13.01,0,26.02-1.82,38.66-5.47c3.94-1.14,6.97-4.17,8.11-8.11C106.29,65.6,106.29,38.86,99,13.57z M92.29,88.96
	c-0.46,1.59-1.74,2.87-3.33,3.33c-8,2.31-15.16,3.83-23.36,4.59v-32.6h13.26V56.3H65.6v-7.92c0-5.62,3.57-8.19,9.18-8.19h4.08v-8.98
	h-4.08c-9.47,0-18.17,7.7-18.17,17.17v7.92H43.36v7.98h13.26v33.08c-14.14,0.58-27.35-1.11-41.11-5.07
	c-1.6-0.46-2.87-1.74-3.33-3.33c-6.92-24.03-6.92-49.43,0-73.46c0.46-1.6,1.74-2.87,3.33-3.33c12.01-3.46,24.37-5.19,36.73-5.19
	c12.36,0,24.71,1.73,36.73,5.19c1.6,0.46,2.87,1.74,3.33,3.33C99.21,39.53,99.21,64.93,92.29,88.96z"/>
</svg>
