<svg id="Layer_1" data-name="Layer 1" xmlns="http://www.w3.org/2000/svg" viewBox="0 0 277.09 234.68"><defs><style>.cls-1{fill:#fff;}</style></defs><title>logo_white</title><g id="equalizer"><rect class="cls-1" x="25.77" y="146.41" width="2.41" height="43.86"/><rect class="cls-1" x="30.43" y="146.41" width="2.41" height="30.79"/><rect class="cls-1" x="35.1" y="146.41" width="2.41" height="29.23"/><rect class="cls-1" x="39.76" y="146.41" width="2.41" height="25.38"/><rect class="cls-1" x="44.35" y="146.41" width="2.41" height="34.52"/><rect class="cls-1" x="49.08" y="146.41" width="2.41" height="31.47"/><rect class="cls-1" x="53.74" y="146.41" width="2.41" height="40.55"/><rect class="cls-1" x="58.4" y="146.41" width="2.41" height="53.68"/><rect class="cls-1" x="63.06" y="146.41" width="2.41" height="62.6"/><rect class="cls-1" x="67.72" y="146.41" width="2.41" height="54.76"/><rect class="cls-1" x="77.04" y="146.41" width="2.41" height="29.39"/><rect class="cls-1" x="72.18" y="146.41" width="2.41" height="44.31"/><rect class="cls-1" x="81.7" y="146.41" width="2.41" height="55.95"/><rect class="cls-1" x="86.36" y="146.41" width="2.41" height="51.11"/><rect class="cls-1" x="91.02" y="146.41" width="2.41" height="57.53"/><rect class="cls-1" x="95.68" y="146.41" width="2.41" height="76.22"/><rect class="cls-1" x="100.34" y="146.41" width="2.41" height="83.95"/><rect class="cls-1" x="105" y="146.41" width="2.41" height="74.44"/><rect class="cls-1" x="109.67" y="146.41" width="2.41" height="47.06"/><rect class="cls-1" x="2.49" y="146.41" width="2.41" height="5.26"/><rect class="cls-1" x="7.14" y="146.41" width="2.41" height="7.68"/><rect class="cls-1" x="11.81" y="146.41" width="2.41" height="13.15"/><rect class="cls-1" x="16.47" y="146.41" width="2.41" height="27.21"/><rect class="cls-1" x="21.13" y="146.41" width="2.41" height="48.91"/><rect class="cls-1" x="128.37" y="146.41" width="2.41" height="72.25"/><rect class="cls-1" x="133.03" y="146.41" width="2.41" height="88.27"/><rect class="cls-1" x="114.4" y="146.41" width="2.41" height="32.3"/><rect class="cls-1" x="119.06" y="146.41" width="2.41" height="38.2"/><rect class="cls-1" x="123.72" y="146.41" width="2.41" height="56.4"/><rect class="cls-1" x="137.37" y="146.41" width="2.41" height="76.39"/><rect class="cls-1" x="142.03" y="146.41" width="2.41" height="61.66"/><rect class="cls-1" x="146.69" y="146.41" width="2.41" height="54.71"/><rect class="cls-1" x="151.35" y="146.41" width="2.41" height="30.15"/><rect class="cls-1" x="156.01" y="146.41" width="2.41" height="37.24"/><rect class="cls-1" x="160.67" y="146.41" width="2.41" height="54.59"/><rect class="cls-1" x="165.33" y="146.41" width="2.41" height="72.22"/><rect class="cls-1" x="169.99" y="146.41" width="2.41" height="59.17"/><rect class="cls-1" x="174.65" y="146.41" width="2.41" height="50.34"/><rect class="cls-1" x="179.32" y="146.41" width="2.41" height="75.82"/><rect class="cls-1" x="183.97" y="146.41" width="2.41" height="63.25"/><rect class="cls-1" x="188.64" y="146.41" width="2.41" height="54.11"/><rect class="cls-1" x="193.3" y="146.41" width="2.41" height="39.25"/><rect class="cls-1" x="197.96" y="146.41" width="2.41" height="30.15"/><rect class="cls-1" x="202.62" y="146.41" width="2.41" height="41.38"/><rect class="cls-1" x="207.31" y="146.41" width="2.53" height="30.05"/><rect class="cls-1" x="211.94" y="146.41" width="2.41" height="38.9"/><rect class="cls-1" x="216.6" y="146.41" width="2.42" height="49.22"/><rect class="cls-1" x="221.26" y="146.41" width="2.41" height="62.04"/><rect class="cls-1" x="225.92" y="146.41" width="2.41" height="52.59"/><rect class="cls-1" x="230.58" y="146.41" width="2.41" height="39.29"/><rect class="cls-1" x="235.24" y="146.41" width="2.41" height="33.48"/><rect class="cls-1" x="239.9" y="146.41" width="2.42" height="29.58"/><rect class="cls-1" x="244.56" y="146.41" width="2.41" height="32.61"/><rect class="cls-1" x="249.22" y="146.41" width="2.41" height="45.81"/><rect class="cls-1" x="253.88" y="146.41" width="2.41" height="56.26"/><rect class="cls-1" x="258.55" y="146.41" width="2.41" height="42.79"/><rect class="cls-1" x="263.2" y="146.41" width="2.41" height="30.05"/><rect class="cls-1" x="267.87" y="146.41" width="2.41" height="13.74"/><rect class="cls-1" x="272.53" y="146.41" width="2.41" height="8.56"/></g><g id="name"><path class="cls-1" d="M20.13,124.49a6.46,6.46,0,0,0-1.47-2.07A8.8,8.8,0,0,0,16.6,121a24.73,24.73,0,0,0-2.35-1L12,119a9.3,9.3,0,0,1-2-1,4.84,4.84,0,0,1-1.36-1.42,3.79,3.79,0,0,1-.5-2v-.5a4,4,0,0,1,.31-1.56,3.9,3.9,0,0,1,.87-1.26,4.05,4.05,0,0,1,2.84-1.18h1.48a3.79,3.79,0,0,1,1.66.29,4.07,4.07,0,0,1,2.12,2.12,4,4,0,0,1,.32,1.56v1.32l2.83-.46V114a6.71,6.71,0,0,0-6.74-6.66h-1.7a6.79,6.79,0,0,0-2.63.53,6.94,6.94,0,0,0-2.15,1.44,6.85,6.85,0,0,0-1.44,2.13,6.55,6.55,0,0,0-.52,2.62v.5a7,7,0,0,0,.55,3,6.35,6.35,0,0,0,1.48,2,8.08,8.08,0,0,0,2.05,1.37c.75.36,1.53.69,2.32,1l2.29.88a9.35,9.35,0,0,1,2,1,4.86,4.86,0,0,1,1.32,1.53,4.23,4.23,0,0,1,.5,2.15v.8a3.44,3.44,0,0,1-.34,1.55,4,4,0,0,1-.92,1.28,4.2,4.2,0,0,1-1.33.87,4.1,4.1,0,0,1-1.59.31H12a4.22,4.22,0,0,1-2.95-1.18,4.3,4.3,0,0,1-.92-1.28,3.76,3.76,0,0,1-.34-1.55v-1.75L5,127v1.25a6.39,6.39,0,0,0,.56,2.62A7,7,0,0,0,7,133a7.21,7.21,0,0,0,2.21,1.44,7.07,7.07,0,0,0,2.65.52h1.9a7,7,0,0,0,2.64-.52A7.24,7.24,0,0,0,18.63,133a7,7,0,0,0,1.51-2.14,6.24,6.24,0,0,0,.57-2.62v-.8A7.22,7.22,0,0,0,20.13,124.49Z" transform="translate(-0.02 0.02)"/><polygon class="cls-1" points="23.05 107.71 23.05 110.44 29.36 110.44 29.36 134.63 32.2 134.63 32.2 110.44 38.52 110.44 38.52 107.71 23.05 107.71"/><path class="cls-1" d="M56.3,111.42a6.74,6.74,0,0,0-1.44-2.13,6.9,6.9,0,0,0-2.14-1.44,6.56,6.56,0,0,0-2.62-.53H48.25a6.79,6.79,0,0,0-2.63.53,6.94,6.94,0,0,0-2.15,1.44A6.85,6.85,0,0,0,42,111.42a6.55,6.55,0,0,0-.52,2.62v14.22a6.51,6.51,0,0,0,.52,2.61A6.9,6.9,0,0,0,43.47,133a7.15,7.15,0,0,0,2.15,1.45,7,7,0,0,0,2.63.52h1.88a6.73,6.73,0,0,0,2.62-.52A6.93,6.93,0,0,0,54.89,133a6.78,6.78,0,0,0,1.44-2.14,6.65,6.65,0,0,0,.53-2.61V114A6.77,6.77,0,0,0,56.3,111.42ZM54,114v14.22a3.78,3.78,0,0,1-.31,1.56,4.3,4.3,0,0,1-.86,1.28,4.19,4.19,0,0,1-1.27.86,3.78,3.78,0,0,1-1.56.31H48.33a3.78,3.78,0,0,1-1.56-.31,4.3,4.3,0,0,1-1.28-.86,4.12,4.12,0,0,1-.86-1.28,4,4,0,0,1-.32-1.56V114a4,4,0,0,1,.32-1.56,3.77,3.77,0,0,1,.86-1.26,4.12,4.12,0,0,1,1.28-.86,4,4,0,0,1,1.56-.32H50a4,4,0,0,1,1.56.32,3.91,3.91,0,0,1,1.27.86,4,4,0,0,1,.86,1.26A3.78,3.78,0,0,1,54,114Z" transform="translate(-0.02 0.02)"/><polygon class="cls-1" points="64.49 131.91 64.49 107.71 61.65 107.71 61.65 134.63 74.61 134.63 74.61 131.91 64.49 131.91"/><polygon class="cls-1" points="93.3 110.44 93.3 107.71 77.95 107.71 77.95 134.63 93.3 134.63 93.3 131.91 80.78 131.91 80.78 122.54 90.92 122.54 90.92 119.82 80.78 119.82 80.78 110.44 93.3 110.44"/><polygon class="cls-1" points="109.89 107.71 109.89 126.79 99.05 107.82 98.97 107.71 97.39 107.71 97.39 134.63 100.22 134.63 100.22 115.6 111.06 134.52 111.11 134.63 112.74 134.63 112.74 107.71 109.89 107.71"/><polygon class="cls-1" points="116.06 107.71 116.06 110.44 122.38 110.44 122.38 134.63 125.21 134.63 125.21 110.44 131.53 110.44 131.53 107.71 116.06 107.71"/><rect class="cls-1" x="134.86" y="107.71" width="2.83" height="26.92"/><path class="cls-1" d="M157.75,111.42a6.83,6.83,0,0,0-3.58-3.57,6.74,6.74,0,0,0-2.62-.53h-1.88a6.79,6.79,0,0,0-2.63.53,6.94,6.94,0,0,0-2.15,1.44,6.63,6.63,0,0,0-2,4.75v14.22a6.65,6.65,0,0,0,.53,2.61,6.76,6.76,0,0,0,3.59,3.59,6.64,6.64,0,0,0,2.48.52l2.42,5.45h2.87L152.35,135a6.5,6.5,0,0,0,2.12-.63,6.63,6.63,0,0,0,3.29-3.54,6.8,6.8,0,0,0,.48-2.52V114A6.89,6.89,0,0,0,157.75,111.42ZM155.44,114v14.22a4,4,0,0,1-.32,1.56A4,4,0,0,1,153,132a3.78,3.78,0,0,1-1.56.31h-1.66a3.86,3.86,0,0,1-1.57-.31,4.07,4.07,0,0,1-2.14-2.14,3.78,3.78,0,0,1-.31-1.56V114a3.78,3.78,0,0,1,.31-1.56,3.9,3.9,0,0,1,.87-1.26,4.11,4.11,0,0,1,1.31-.87,4,4,0,0,1,1.57-.32h1.66a4,4,0,0,1,1.56.32,4.19,4.19,0,0,1,1.27.86,3.76,3.76,0,0,1,1.13,2.83Z" transform="translate(-0.02 0.02)"/><path class="cls-1" d="M186.6,124.49a6.17,6.17,0,0,0-1.47-2.07,8.76,8.76,0,0,0-2-1.42c-.76-.39-1.54-.74-2.32-1l-2.3-.92a9.54,9.54,0,0,1-2-1,4.57,4.57,0,0,1-1.35-1.42,3.71,3.71,0,0,1-.51-2v-.5a4,4,0,0,1,.32-1.56,4,4,0,0,1,.86-1.26,4.3,4.3,0,0,1,1.28-.86,4,4,0,0,1,1.56-.32h1.48a4,4,0,0,1,1.56.32,4.12,4.12,0,0,1,2.13,2.12,4,4,0,0,1,.31,1.56v1.29l2.83-.46V114a6.55,6.55,0,0,0-.52-2.62,6.76,6.76,0,0,0-3.58-3.57,6.42,6.42,0,0,0-2.63-.47h-1.7a6.7,6.7,0,0,0-6.74,6.68v.54a7.18,7.18,0,0,0,.56,3,6.17,6.17,0,0,0,1.47,2,8.6,8.6,0,0,0,2.06,1.37c.74.36,1.52.69,2.31,1l2.3.88a9.35,9.35,0,0,1,2,1,4.93,4.93,0,0,1,1.36,1.48,4.23,4.23,0,0,1,.5,2.15v.8a3.79,3.79,0,0,1-.33,1.55,4.3,4.3,0,0,1-.92,1.28,4.42,4.42,0,0,1-1.34.87,4.1,4.1,0,0,1-1.59.31h-1.66a4.18,4.18,0,0,1-1.6-.31,4.27,4.27,0,0,1-2.27-2.15,3.76,3.76,0,0,1-.34-1.55v-1.7l-2.83.46v1.25a6.09,6.09,0,0,0,.57,2.62,7,7,0,0,0,1.5,2.14,7.16,7.16,0,0,0,2.2,1.44,7,7,0,0,0,2.64.52h1.85a7,7,0,0,0,2.64-.52,7.28,7.28,0,0,0,2.2-1.44,7.08,7.08,0,0,0,1.5-2.14,6.09,6.09,0,0,0,.57-2.62v-.8A7,7,0,0,0,186.6,124.49Z" transform="translate(-0.02 0.02)"/><polygon class="cls-1" points="189.53 107.71 189.53 110.44 195.84 110.44 195.84 134.63 198.68 134.63 198.68 110.44 204.99 110.44 204.99 107.71 189.53 107.71"/><path class="cls-1" d="M220.47,107.69v20.57a4,4,0,0,1-.32,1.56,4.3,4.3,0,0,1-.86,1.28A4.21,4.21,0,0,1,218,132a3.86,3.86,0,0,1-1.57.31H214.8a3.78,3.78,0,0,1-1.56-.31,4,4,0,0,1-2.14-2.14,4,4,0,0,1-.32-1.56V107.69H208v20.57a6.83,6.83,0,0,0,6.77,6.75h1.89a6.68,6.68,0,0,0,2.61-.52,6.93,6.93,0,0,0,2.14-1.45,6.73,6.73,0,0,0,2-4.75v-20.6Z" transform="translate(-0.02 0.02)"/><path class="cls-1" d="M243.35,111.8a6.75,6.75,0,0,0-6.21-4.11h-8.61v26.92h8.61a6.83,6.83,0,0,0,6.77-6.75V114.43A6.78,6.78,0,0,0,243.35,111.8Zm-12-1.39H237a4,4,0,0,1,1.56.32,4.12,4.12,0,0,1,1.28.86,4.3,4.3,0,0,1,.86,1.28,4,4,0,0,1,.32,1.56v13.46a4,4,0,0,1-.32,1.56,4.19,4.19,0,0,1-.86,1.27,4.3,4.3,0,0,1-1.28.86,4,4,0,0,1-1.56.31h-5.67Z" transform="translate(-0.02 0.02)"/><rect class="cls-1" x="249.08" y="107.71" width="2.83" height="26.92"/><path class="cls-1" d="M272,111.42a6.76,6.76,0,0,0-3.58-3.57,6.65,6.65,0,0,0-2.61-.53h-1.89a6.74,6.74,0,0,0-2.62.53,6.94,6.94,0,0,0-2.15,1.44,6.63,6.63,0,0,0-2,4.75v14.22a6.83,6.83,0,0,0,6.77,6.75h1.89a6.68,6.68,0,0,0,2.61-.52,6.81,6.81,0,0,0,2.14-1.45,6.73,6.73,0,0,0,2-4.75V114A6.77,6.77,0,0,0,272,111.42Zm-2.3,16.84a4,4,0,0,1-.32,1.56,4.3,4.3,0,0,1-.86,1.28,4.21,4.21,0,0,1-1.26.86,3.78,3.78,0,0,1-1.56.31H264a3.78,3.78,0,0,1-1.56-.31,4,4,0,0,1-2.14-2.14,3.78,3.78,0,0,1-.31-1.56V114a3.78,3.78,0,0,1,.31-1.56,4,4,0,0,1,.86-1.26,4.3,4.3,0,0,1,1.28-.86A4,4,0,0,1,264,110h1.67a3.92,3.92,0,0,1,1.59.31,4.07,4.07,0,0,1,2.12,2.12,4,4,0,0,1,.32,1.56Z" transform="translate(-0.02 0.02)"/></g><g id="trees"><path id="_01" data-name=" 01" class="cls-1" d="M3.09,96.11s-3.59-.11-3-.82c.33-.43,1.14-.24.93-.77s-.3-.44-.58-1-.51-.49,0-.63,1.82-2,2.65-3,1.28-.35,1.34-.42a10.29,10.29,0,0,1,0-1.57c.13-.88.33-.55.42-1.53s-.23-1.24.44-1.69,1.11-.09.68-.87a1.87,1.87,0,0,0-1-1s1.28-.51.89-.8S5.32,80.53,5,80.27s-.75-.67-.09-.64S6.4,78.8,7.24,79s.31.77.94-.29.6-1.38.6-1.38.33,0-.37.32-1.43-.22-.79-.32.73-.43.73-.43a8.24,8.24,0,0,1-.76-1.4c-.07-.31.24-.88-.38-.48s-1.2.06-.67-.52a11.34,11.34,0,0,1,1.51-1.26l.08-.5s-1.52,1.44-1.51.7a2.12,2.12,0,0,1,1.13-1.88c.79-.45.36-.74,0-1.35s.63-1.7.63-1.7a1,1,0,0,1,.34-.69c.37-.37,1.41-1.38,2.08-1.29s2.45-1.19,2.45-1.19,0-.7.35-.92a3.77,3.77,0,0,0,.7-.84H12.56a2.15,2.15,0,0,0-.5.85c-.13.48-1-.35-1-.35s-.11.41-1.25.22-1.5-1-1.13-1.46.82-.56,1.48-.9.65-.92,1-1.08,1.58-.42,1.69-.77.35-1.28.35-1.28a4.53,4.53,0,0,0-1.86.27c-1,.37-2,.12-1.71-.57a7.34,7.34,0,0,1,1.62-2.17c.43-.25,1.51-.55,1.93-.75s1.41,0,.78-.49-2.54-1-2.49-1.67-.46-1,.44-1.74.41-1.58.72-1.59.45-.57,1,0a1.24,1.24,0,0,0,1.12.38s.2.39.06.53.53.45.53.45.72-1,0-1.68-.5-.27-1.21-.6-.73,0-1-1.11-.35-.68.63-1.4,1-1.08,1-1.08l1.42-.92.58-.18A6.15,6.15,0,0,1,17,43.08c.2-.76.07-.81.62-1s.46-.88,1-1.33.18-1.31.59-1.38.7.72.76,1.06.38,1.27.86,1.3,1.18.1,1.19.63-.17,1.35-.38,1.35a3.5,3.5,0,0,0-.88.4l.26.35,1-.19c.41-.08,1.38-.44,1.76.57s.27.44,1,1.11.69.59.35,1.11a5.26,5.26,0,0,1-1,1s.86,1,1.21.61,1.17-.39,1.34-.09a4.16,4.16,0,0,1,.26,1.16s-.13,1.27-.79,1.35c0,0-1.85.42-.87.76s1.2-.33,1.58.7a4.58,4.58,0,0,0,1,1.53c0,.08.78.61,0,.89a3.3,3.3,0,0,1-1.65.06s-.71-.07-.47.41a10,10,0,0,0,1.9,1.65,6.72,6.72,0,0,0,1.75.55c.47,0,1.43-.38,1.8-.07s.82.2.42,1A4.2,4.2,0,0,1,30,59.92s.08,1.47-.23,1.72a1.49,1.49,0,0,1-1.51.26c-.61-.27,0-.32-.72-.67s-1.18,0-1.25.4-.47.44,0,.81a23.76,23.76,0,0,0,2.25.92,9.08,9.08,0,0,1,1.7.94c.42.43,1.18,1.53,2.12,2.61.73.82-1.33,3-1.3,2.91a3,3,0,0,1,1.8.82,1.8,1.8,0,0,1,0,2.16c-.41.27-1.29,1.49-1.8.54s-.64.55-.64,1,2.07,1.36,2.8,1.36,2.51-.14,2.51-.14l-1.92,1.63-1.54.4s2.56-.54,2.25.81.1-.27-.31,1.36,1.55,1.08,1.52,1.76.81,1.62,1.21,2.17-.48.81-2.42.81S33.83,86,34,86.39s.19.14,1.79,1S38.43,89,38.43,90.1s-2.68,1.22-2.68,1.22,2.89.68,3.46.68,1.21.81,1.21.81-3.07,0-2.8,1.22,4,2.22,4,2.22Z" transform="translate(-0.02 0.02)"/><path id="_02" data-name=" 02" class="cls-1" d="M32.69,65.69a9.85,9.85,0,0,1-.4-2.59c-.12-1.38.79-1.62,1.59-1.6a10.26,10.26,0,0,1,2.71,1.09s.14-1.33.25-2.22.25-1.39.4-2.86-.15-1.86.73-2.6,0-1.3.42-1.78A1,1,0,0,1,39.8,53a1,1,0,0,1,.3.42,7.4,7.4,0,0,0,.67,1.88c.33.37.13,1.36.18,1.89A5.82,5.82,0,0,1,40.42,59L40,60s.92-1.17,1.38-.18.46.86.42,1.63.17,1.35-.18,1.8,0,1.72,0,1.72.46.27,1,.54,1.72.72,2,1.26-.88.64-.8,1.09-1.28.81-1.28.81-.36.9.9,1.26,1.22,1.27,1.22,1.27a3.32,3.32,0,0,1,0,.63c0,.27-.5.7.68.7s.68-.52,1.62-.7S48.33,73,48.33,73s.45,1.51-.82,1.6-2.92.38-2.7,1.08c0,.19,0,0,.63.45s1.35.72,1.35,1.09,1.18,1.17-.18,1.08-1.89.81-1.58,1.17,1,.27,1.67.81a13.58,13.58,0,0,1,1.85,2.35c.5.72,1,1.36,0,1.63s-1.13.9-.95,1.26,1.27.45,1.27.45.56-.78.89-.81c.53,0,.79,1,1.21,1.72s-.49,1.44-1.21,1.62-1.25-.81-1.21,0S51,90,51,90.38s-2.42,1.08-2.42,1.08,2.27,1.08,2.42,1.8a6.85,6.85,0,0,1,.11,1.63l1.67,1.23H27.62S26.18,96,26.41,95s.28-1,1.21-1S29,92.17,29,92.17s-1.82,1.08-2.17.45c-.9-1.62,1.4-1.76,2.39-2.39s1.69,0,1.86-.77-.83-.81-1.63-.81-2.53-1.8-2.62-2.3,1.36-.9,1.36-.9.11-1.24.45-1.35.81.54.81.54,1.55.54,1.63.09.63-1.54-.82-1.72-2.44-.9-2.25-1.35a1.77,1.77,0,0,1,1.35-1c.63-.09.77-.86,1-.86s1,1,1.31,0,.59-1.28.09-1.44c-1.07-.35-2.21-.09-2.21-1.44s3.37-1.39,2.7-1.36c-1.78.09-3.37-2.57-2-2.75s3.16,0,2.62-1c-.19-.35-3.66-.23-2.93-1.72.43-.89,1.8-1,1.12-1.67s1-1.6,1.31-1.69a1,1,0,0,0,.56-.51Z" transform="translate(-0.02 0.02)"/><path id="_03" data-name=" 03" class="cls-1" d="M40.42,63.35c-.31-.69,1.93-1.77,1.82-2.18s-.1-1.36.3-1.37a14.36,14.36,0,0,0,1.72.29A6.38,6.38,0,0,0,46.71,59c.13-.16.83-1.38.83-1.38a1.07,1.07,0,0,1-.84-.6,3.4,3.4,0,0,0-1-1s.16-1.12.47-1.22a2.11,2.11,0,0,0,.71-.58l-.26-.62.06-1.32h.57l.73.62,1.05.41.11-1.5.63-.1a.92.92,0,0,1,1,.25,8.44,8.44,0,0,1,1.12,1.59l.56-1.63a1.72,1.72,0,0,1-1.44-.5c-.52-.62-.49-1.08-1.08-1.24s-1.08.19-1.26-1.61-.6-3.8-.4-3.92.28-1.92,1.23-1.52,1.08.69,1.08,1,1.37.75,1.87.64.72.57,1.33.61.75-.29.63-.73-.8-.19-1.43-.91-1.33-1-1.42-2.34.29-1.46-.36-1.46-1.24-.24-.76-1.61-.66-1.67.48-1.36.77.87,1.38.9,1-1.46,1-1.46,0,1.26.35,1.49-.15.46.84.19.65-1.61,1.47-1.44l.83.17a2.28,2.28,0,0,0,.41-1.34c-.06-.7-.72-1-.71-1.55a2.1,2.1,0,0,1,.71-1.17s.64-1.36,0-2.08.28-1.26.28-1.26a1,1,0,0,1,0-1.41.64.64,0,0,1,.15-.13c.87-.84.43-1.58,1-2s1-.91,1.3,0a7.5,7.5,0,0,1,.32,1.94s1.21-.43,1.1.74-.59,1.37-.15,3,.41.81.82,2.21.8-.64.6.38a15.85,15.85,0,0,0-.25,3c0,.9-.94,2.1,0,1.44s.92-1.5,1.68-2.06.59-.46,1.31-.45,0-1.15.84-.92.74,0,1.38.65,1.79.7,1.22,1.42a2.4,2.4,0,0,0-.55,1.38,2.26,2.26,0,0,0-1,.78c-.36.51-.4.43-.11,1s-.06.24-1,.68-1.47.69-.68,1l2.79,1.12s.16,1.13.73,1.15,1.16.78.64,1.3-1.06,1.16-.7,1.8a1.54,1.54,0,0,0,1.71.65c.46-.2,1.09.34,1.27.61a4.69,4.69,0,0,0,.63.63s.81,0,0,.72-1.53.54-.81,1.18a3.52,3.52,0,0,0,1.89,1c.46,0,.73.27,1,.72s-.73,1-.73,1-.27,1,0,1.18.37.36-.81,1a11.74,11.74,0,0,1-1.62.72c-.54.27-2.89,1.18-1.36,1.36A7.65,7.65,0,0,0,73.52,58c.55-.27.55-.36,1.13.54s.59,1.8,1,2.08.36.27,1.17.81a15.86,15.86,0,0,0,1.54.9s-.36,1-1,1-2.35.71-2.44,0-2-.24-1.54.29.55,1.53,1.27,1.53,1.71-.54,2.34,0,1.9.63,2.17,1.35a5.35,5.35,0,0,1,.45,1.81c0,.54.81.81,1.36,1s-1.31,1.9-2,1.76-.32.68.76,1.36,2,1.21,2,1.21,1.57-.27,1.87.82a2.67,2.67,0,0,1,0,1.89c-.11.27-.95,0-1.21.82s1.86,1.19,2.86,1.56,1.36,3,0,3.11-4.46.82-4.6,0-1.71.4-1.71.4a3.87,3.87,0,0,0,1.58,2c1.08.54,3.11,0,4.19,0s3.32-.87,3.56.24a5.16,5.16,0,0,1,0,2.47,1.59,1.59,0,0,1-1.56,1.62,1.57,1.57,0,0,1-.82-.21c-1.15-.54-1,.41-.88,1a1.92,1.92,0,0,0,.88,1.36c.61.4-.1-.55,1.2,0s1.36-1.16,1.36-1.16l2.1-.81s1.18,0,1.21.41,1.71.9,1.21,1.6-1.51-.25-1.21,1.11,1.09,1.62,1.3,2.43A4,4,0,0,1,93,96.11H35.75s-1-3.58,1.21-3.85,4.09-.4,3.46-.81-.16,0-1.21,0-5.74-1.63-3.46-1.9,2.89-.81,3.46.14,2.74-.27,3.15-.41,3.32-3,1.46-2.57-3.76,1.44-4.26.77-2.21-2.17-1.9-3,3.37-.77,4-.36,2.56-.27,2.19-.82,1.2-.81,1.2-.81,2.89-2.14,1.2-2.28a8.64,8.64,0,0,0-4,1.08,5.77,5.77,0,0,1-2.43.41c-2.1-.75-1.76-1.9-.58-3.66a1.78,1.78,0,0,1,1.21-.54l1.94.41s-.14-.68.81-.81A4.62,4.62,0,0,1,45.05,77c.45.14-2.91-1.35-3.39-2s-.47-1.08,0-1.36a18.45,18.45,0,0,1,2.19-.67c-.11,0,1-1.62,0-2.44-.77-.65-2.63-.92-2.68-1.71s3-1.13,3.25-1.54-1.77-.32-2.12-.72-2.89.13-1.08-1.31A8.49,8.49,0,0,0,40.42,63.35Z" transform="translate(-0.02 0.02)"/><path id="_04" data-name=" 04" class="cls-1" d="M68,47.64c-.33-1.59,1-1,1.66-1.77s-.08-.53.38-1a1.47,1.47,0,0,1,1.07-.41c.28,0,.64-.4,1-.09s-.29.33.93.31,2.16,0,2.36-.86,0-1,.23-1.46.41-.83,0-.73-1.16.51-1.3,0-.89-.87-1.16-1.1-.87-.25-.93-.67-.19-1,.63-1,.81-1,1.4-.91,1.15.51,1.64.51,1,.57,1-.29a2,2,0,0,0-.42-1.38c-.23-.26-.8-1-.18-1s1.41.62,1.36,0-.43-1.15,0-1.57.28-.09.33-.92S77.81,32,78.1,32s-.14-.45.34-.3a1.23,1.23,0,0,1,1,.93,3.32,3.32,0,0,0,.7,1.11s.67.16.48.51-.61.72-.56,1.29-.16.63.48.93,1-.54,1.8-.62l1.55-.15s.24,1.12,0,1.12-.78.81-.78.81-.47.48-.34.88.27.68.54.34.43-.81.69-.4-.62.27.26.4.68-.27.88.14.27.33.68.67,1.15.14,1.15.41-1,1.35-1.49,1.15-1.29.54-1.29.54-.4,1.15-.61,1.15.82.75,1.29.88,1.29-.33,1.76.28.54.88.88,1.15a8.83,8.83,0,0,0,1.15.67s-.13,1-.4.88a5.7,5.7,0,0,0-1.43-.06A1.06,1.06,0,0,0,87.24,48c.81.54.68.27,1.42.54a3.73,3.73,0,0,1,1.36,1,2.31,2.31,0,0,0,.74.4c.2,0,.54-.47.54-.47a3.54,3.54,0,0,1,.61,1.15c0,.34-.4.61-.88.61H89.62a1.78,1.78,0,0,1,.61.61,1.25,1.25,0,0,0,1,.47,1.87,1.87,0,0,1,.61.39v1s-.2.74-.54.74-1.35-1-1.15,0,.54,1,.88,1.15.47,0,.81.27a13.08,13.08,0,0,1,.88,3,1.83,1.83,0,0,1-2.5,0c-1.29-1.15.88,2.44,1.22,2.44h.94s.34.61.75,0,.47-.45.74-.6.54.87.54.87a5.79,5.79,0,0,0,.8.27c.15,0,.29.48.29.48l-.29.4s-1.27-.34-1,0a7.59,7.59,0,0,0,1,.88l-.73.48s-.47,1-.07,1.28a3.62,3.62,0,0,1,.8.81,2.79,2.79,0,0,1-.8.61c-.27.07-1.28-.54-1.48,0s1.32,1.74,1.32,1.74H96s.81.28.88.68-.27.27,0,.61-.46.75,0,1.08,1.48.48,1.28,1-.27,0-.21.48.21.27.54.88-1.89.88-2.3.74-1.22-.81-1.42-.81-.27-.14-.54,0,.47,1.27.47,1.27-.5-.73.46.35,1.1.48,1.64,1.09,2.3,0,2.3,0,.21-.82.55.27.33.81.33,1.42.61.13.61,1-2.3,2.23-2.3,2.23.41.81,1,.81,1.69-.47,1.28.34-1.62.81-.67,1.29,1.76.27,1.89.61,1.42.27,0,1-3,.81-3.65,0-2.24-.31-.68.56,4.74.25,3,1.81l-1.76,1.55,1.35.48s.48.74.27.88-.61,0-.61,0-1.49,1.15-.2,1.42a18.53,18.53,0,0,1,3,1l.35.82s-1.42.81,0,.81,3.18,0,3.18.47a4.87,4.87,0,0,1-.47,1.44H60.25a2.93,2.93,0,0,0,0-1.71c-.3-.81,2.29-.81,2.29-.81l1.21-.81s-1.06-.81-1.21-1.22l-.15-.41,1.36-1.08H65.1s.65-1.22-.15-1.63a16.31,16.31,0,0,1-2.41-1.89A3.31,3.31,0,0,1,63.75,86c.4,0,.78-.27,1.2-.27s.42,0,1.64.54,3.22,1.62,3,0a6,6,0,0,0-1.17-3s-5.3-1.17-4.66-1.8c.81-.81,3-1.22,3.45-1.63s.33,0,0-.81S65,77.49,65,77.49c-2-1.31,3.4-2.26,3.4-2.26a3,3,0,0,0,1.27,0c.76-.14,1.17.37,1.17-.76s-3-.78-4.25-1.32,4.24-1.71,1.87-2.12-3.31.64-3.46-1.67c0-.23,3.52-.63,3.46-1s-1-.4-.06-.4,1.27-1.81,1.27-1.81-1.5-1-.82-.9-1.28-.31-1.4-1.22c-.16-1.22.69-1.67-.2-2.75S65,60.15,66.64,59.2,66.37,58,66.37,58s-.81-.5-.81-.63-1.31-.25-1.22-1.2C64.42,55,69,56.11,69,56.11a.58.58,0,0,0,.27-.55V55.2l-.41-.72.36-.27c.18-.13-.93-.09-.75-.32s-.6-1.12-.6-1.12-2.48-.16-2.44-1.4,4.78-.36,5.1-.77.77-.27.54-.77-1.17-.95-1.49-1.22S68.11,48.08,68,47.64Z" transform="translate(-0.02 0.02)"/><path id="_05" data-name=" 05" class="cls-1" d="M81.45,38.91c-.45-.91,3-4.36,3.18-4.84s-.38-1.22-.19-1.66,1.15-.53,1.15-.53-.57,0,.28-1.13.65-1.18,1.26-1.23,1-1,1.7-1a6.88,6.88,0,0,0,1.82-.68s2.24-.29,1.3-1-.2-1-1-.73-.8,0-1,.75-.33,1.41-1,.69l-.65-.75s.65.25-.41.64-.6.67-1.38,1.15-1.69,1.56-2.1.46a2.06,2.06,0,0,1,.71-2.21,1,1,0,0,0,.26-1.16c-.2-.4-.73,0-.73,0s-.86-.46-.13-.71a21,21,0,0,1,2.16-.72c.06.06,1.07-1.18,2-.66a1.51,1.51,0,0,0,1.56.09.42.42,0,0,0,.47.34h0a1.69,1.69,0,0,0,1.13-1.28,1.2,1.2,0,0,0-.73-1.23c-.56-.24-.19.15-1,.29a4.59,4.59,0,0,1-1.84.17c-.86-.11-.52-1.45-.52-1.45s.41,0,1-.73.37-1.12,1.12-1,1.57-.64,2-.74l.46-.1a3.63,3.63,0,0,0-1.6-.54A1.93,1.93,0,0,1,89.06,16c-.08-.52-.35.25.29-.87S90,13.84,91,14l1,.15-.23-1.8s-.48,1.13-1.2-.24-1.24-1.73-.71-2A2.87,2.87,0,0,1,91,9.85c.54-.08.87,0,1.36-.76s0-.88.83-1,1,.18,1-.82-.34-.53.48-1.15.71-.74,1.11-1.8.54-1.27.85-.88a8.43,8.43,0,0,1,.68,2h.62c.75,0,1.13.2,1,.62s-1,0-.74.85.43.92,1.06,1a5,5,0,0,1,1.66.72c.31.19,1.16-.5,1.11.72a20.72,20.72,0,0,1-.3,2.48,1.13,1.13,0,0,1,1.33,0c.83.45,1.12.46.61,1.24a4.84,4.84,0,0,1-1,1.12,3.32,3.32,0,0,1,.81,1.39A4,4,0,0,0,105,17.26c.12.16-.56.79-.56.79s-.39,1.07-.76,1.2-1.57.17-1.83-.46-.81.45-.81.45l2,.59a8.82,8.82,0,0,0,1.48.64c.39.06,2,.22,2.49.38s1.52.58.52,1.34-1.5-.19-1.15,1-.07,1.65-.07,1.65a8.08,8.08,0,0,1-1.7-.82,3.78,3.78,0,0,0-1.63-.5s.42.61,0,1-1.19-.14-1.58-.33-.16-.54-.4-.18-.79,1,0,1.33,2-.1,3.57.63A6.59,6.59,0,0,1,107,27.8c.25.35.63-.25,1.43.6A15.22,15.22,0,0,0,110,30c.52.43,1.08,1.13.85,1.49s-2.24.25-2.24.25a1,1,0,0,0,0-1,1,1,0,0,0-1-.42,1.07,1.07,0,0,1-.68.53c-.43,0-.31-1.21-.68-.86s.38,1.06-.39,1a2.5,2.5,0,0,1-1.4-.91s-.84-.25-.84.38-.43.86.19,1.61,2.09,0,2.09,0l1.69,2.14.34.59s.64.6-.37.52a2.53,2.53,0,0,0-1.44.16c-.83.19-.88.69-.88.69s.7.06,2,.3,2.7,1,2.8,1.58.39,1.44-.35,1.44-.42-.42-.74,0-.28.25-1,.57-.68.17-1.86,0-1.57-1.06-1.79-.85-1.48.15-.13,1.19,1,.72,1.35,1,.94,0,2.22.38,2.2-.18,1.36.79-.61.43-.76,1.25a1.48,1.48,0,0,0,1,1.73,24,24,0,0,0,2.89.63s.72.9.72,1.17-1,.75-1,.75-.54.61-.18.61a4.06,4.06,0,0,1,1.17.45s1.72-1.08,1.81-.45a2.52,2.52,0,0,1,0,1.44,1.58,1.58,0,0,1-.81.82l.91,1c.26.27.08-.45.26.27s2.08.54.18.72-2.44.18-2.44.18.54.91-.72-.54-1.53.18-1.53.18l1.8,2.08s.18.36.9,0-.18-.91,1.18-.54a3.68,3.68,0,0,1,1.65.7v.92s.65.63,0,.63h-1.74l.18.63s1.08,0,1.35.37,1.31,1.7,1.31,1.7-2.71.18-2.71.45-.54.75.63,1a6.11,6.11,0,0,0,2.08.31c.72,0,1.53.27,1.53.63a11.33,11.33,0,0,1-1.53,2.17l-.82.72A12.18,12.18,0,0,0,118.69,66c.9.36,1,1.7,1.2,1.75a9.94,9.94,0,0,1,1.21,1.5v2h-2.41s-.36-1.45-.72,0-1.08,1.62-.54,2.34,2.83.47,3.67.87,2.59-.14,2.25,1.3L123,77.2l-2,.45-1.15.27,3.46,2.16h-2.28s-2.71-1.26-1.21,0a18.27,18.27,0,0,0,3.46,2.17s1.48-2.53,1.21,0A8.26,8.26,0,0,1,123.3,86c-.15.36-1.59,0-1.59,0a24.36,24.36,0,0,0,5.06,2.89s.61.9-1,1.81-4.79,1.08-2.42,2.34,5.47.49,5.86,2c.11.39-1.2,1-1.2,1H69.63s-.63-2.13,0-2.31,2.05-.55,2.05-.55,2.65.37,2.42-.18-.2-2.16-1.21-3.25l-1-1.08L70.81,87.5l2.09.36s1.08.54,1.21-.36,1.85-2.89,0-2.89H72.25s-1.63-.54-1.63-1.09V81.88s-.57-.36,1.07-.36A4.53,4.53,0,0,0,74.11,81s.85.36,1-.36-1-2-1-2V77.35s.13-.73,1-.18l.9.54s1.4-1.63.52-2.35a6,6,0,0,0-2.45-.94,1.93,1.93,0,0,0-1.21,0,1.93,1.93,0,0,1-1.21,0l-.88-2s3.92-3.25,5.75-1.8,4,3,3.18,1.67-1.33-3.12-2-2.94S75.8,69,75.26,69s-1.89-1.55-1.21-1.32,1-.48,1.57-.85A7.64,7.64,0,0,0,77,65H74.68L75,63.2l1.6.11,1.83-1.09-1.54-.87-1.17-.81-1.57.14s-1-2-.6-2.76l.36-.82.24-.72h2.45a6.88,6.88,0,0,0,1.21-.54V54.26s-2.5.27-1.21-1.49,2.1-2.12,2.42-2.12.85-1,.85-1S79.19,48.48,79,48s2.2-1.92,2.25-2.1-.6.36,0-.72S79.71,44,79.55,43.39s1.7-1.77,1.7-1.77-2.44-1.45,0-1.45a4,4,0,0,0,3-1.33S81.75,39.53,81.45,38.91Z" transform="translate(-0.02 0.02)"/><path id="_06" data-name=" 06" class="cls-1" d="M107.76,46c-.72-1.31.15-2.09.85-2.11s1.45,0,1.45,0l.43-.9L110,41s-1.69-.34,0-.69,2.06-.71,2.75-.72.12,0,1.09-.71,1.29,0,1.06-1,.25-1.28-.18-2.57S113,32.91,113,32.42s-1.21-1.16.67-1.4.81-.88,1.88-.23,1.41.3,1-.28a3.33,3.33,0,0,1-.72-1.78,4.41,4.41,0,0,0-.73-1.92c-.42-.76-.54.46-.42-.76s1.73-.17,2,0a3.87,3.87,0,0,0,2,.68s.31,0-.43-.62-1.62-1.33-1.62-1.33.18-.33-.47-.58-.66-1.27-.63-1.95.38-2,1.2-1.51a24.92,24.92,0,0,1,2.14,1.56v1.17s-1.07-2.51-.26-2.61a7.24,7.24,0,0,0,1.66-.43s0-.87-.28-1.05-.9-.5-1-1l-.12-.52s-.45,1.14-.87.32,0-1.33,0-1.84-.49-.65-.2-1.43.31-1,.84-1a1.62,1.62,0,0,1,1.08.34c.24.23,1,.14,1.34,0a5.94,5.94,0,0,1,1.59-.67h.58s-.39-.1-.72-.74,0,.48-.64-.71a4.25,4.25,0,0,1-.68-2.59c.14-.43-.16-1.39-.08-1.77s.42-1.41,1.07-.91.64.35.87,1.06.22.69.23.7.86,0,1.12.5a15.6,15.6,0,0,1,.64,1.69l.44,1s.25-1.54.24-1.81,0-2.71,0-2.71l.66-.78c.68.78.75-.63.75-.63V3.24c0-.52,0-1,.33-1.13s.4-2.1.4-2.1.73-.17,1,.31A4.71,4.71,0,0,1,129.64,2a12.35,12.35,0,0,0,0,1.25s-.26-1.36.46-.87A2,2,0,0,1,131,4.12a21.52,21.52,0,0,1,0,2.54c0,.27-.36-1.2.38-.46s-.17,1.85-.06,2.36,0,1.52.56,1.62-.19.25.65-.6,1.34-1.54,1.46-1,.77-.22,1.24.25a4.05,4.05,0,0,1,.83,2.29,9.48,9.48,0,0,1-.8,1.67,3.63,3.63,0,0,1-.06,1.14c-.14.3-2.17,2.45-2,2s-.41.86-.41.86A1,1,0,0,1,133.9,16l.17,0c1.13.26,2.07-1,2.42-.67a1.16,1.16,0,0,1,.43,1.2c-.08.64-.47.66.13,1s1.28.52,1,1.3a3.06,3.06,0,0,1-.74,1.25h-1.37a4.82,4.82,0,0,1,.8,1c.09.3.27,1.42.87,1.29s1.31-.44,1.51-.1a5.6,5.6,0,0,1,0,2c0,.53.92,1.3.92,1.3s.55-.57,1,.44S140,28,140,28s-.27,1.18-.09,1.22,2.13-1.2,2.3-.15-.23,0-.55,1-.46,2.07.22,2,2.67.22,2.76,1.14.08.44-.38,2-.57,1.89-.15,2,1.48-1.09,1.93-.77,1.38.8.48,1.56-1,.62-1.07,1.8-.16,1.76-.53,1.74-.93-1.22-1,.37-.43,1.84-.12,1.6c.65-.52.42-1.93,1.51-1.3s.93,1.36,1.63,2.12a6.38,6.38,0,0,1,1.27,2.29c.06.46.78.28,1.23.73s-.36,1.54-.63,1.54a8.05,8.05,0,0,1,3,2.12c1.49,1.76,0,1.81,0,1.81s-.95-1-1.22,0,.54.63-.27,1-3.79,2.44-1.36,2.71a3.59,3.59,0,0,0,3.51-1.62s.83-.08,1.5,1.65,2.58.45.68,1.73c-2.36,1.6-3.79-1.35-3.93,0s2,1.79,2.44,2.45.81,1.89.14,1.75l-.68-.13,3.27,1.49a11.89,11.89,0,0,0-1.24,1.76c-.95,1.48.72,2.7,1.24,3.11s.93-1.22.52.41-3.11.4-3.11,1.76,3.79,2.81,4.19,3.57a3.46,3.46,0,0,1,0,2.11c-.81,1-1,1.63.18,1.63s.09-.14,1.18,0,1,.81.81,1.22-1.49-.14-1.9,0a26.87,26.87,0,0,1-2.84.15l.81,1.2,1.9.81s.13-.13.13,1,2,1.76,2,1.76a2.16,2.16,0,0,1-.9,1.9c-1.09,1-1.22,1.76-.54,2.16s.82,1.09,1.9,3.25.77,1.82,2.41,3.12,0,1.41,0,1.41H99.25s-3.55-5.88.31-4.66,4.54-1.22,3.45-1.22-1.35-2.3-1.92-2.71.89-1.08,1.2-.81,1.81,3.11,1.27-.27L103,83.07s-1-1.25-.72-1.62,2.3,0,2.25,0,1.24,1.76,1.21-.41.6-2.3-1.21-2.16-3.78-.82-2.25-1.76a14.56,14.56,0,0,1,3.47-1.77c.38,0,1.46.4,1.87.13s1.22-2.17.27-2.57l-1-.41s-1.44-1.29-1.19-1.76,2,0,2.82,0,2.35.14,1.85-1.08a2.38,2.38,0,0,0-1.85-1.36,4.19,4.19,0,0,1-.82.41c-.4.14-.79-1-.79-1-1.37-.26-1.64,1.23-1.37-.26s1.08-.9,1.08-.9l1.8-.36.74-.77s-3.32,1.22-3.15.14,3-2.21,3-2.21-2.91-1-2.91-2.07c0-1.27,2.18-1.86,2.91-2.62s3.31-2.13,2-2.57c-2.71-1,.13.06-1.08-.82-1.49-1.08-1.85-2.52-.77-2.66s0,0,.72-.63-2.16-1.91-2.25-2.32,2-1.43,2.8-2.38S108.12,46.61,107.76,46Z" transform="translate(-0.02 0.02)"/><path id="_07" data-name=" 07" class="cls-1" d="M148,47.67c.3-1.1.85-1.11,1.28-1.47a3.66,3.66,0,0,0,.73-.93s-.71.1-.67-.85.4-.94.4-.94a.77.77,0,0,1,.13-1.09.55.55,0,0,1,.14-.09c.79-.54,2-.07,2.79-1l1.29-1.51s-.11.44-1,.18-.38-1.4-1.31-.42-.7,1.32-1.36,1.4-1.37,1.12-1.71.25.72-1.53.72-1.53a2.8,2.8,0,0,1-.5-1.55c.07-.71,0-1,.77-1.27s2.73-.58,3.33-.75,1.67-.74,1.1-1-1,0-1.61,0-1.33-.07-1-.78a3.56,3.56,0,0,1,1.4-1.73c.9-.63.24-.85,1-.9l1.49-.1s0-.26-.89-1a11.78,11.78,0,0,0-1.81-1.15s.85-1,1.26-1.56,1.21-1.72,1.44-.89l.24.82s.74-.87.65-1.11c-.17-.46-1-.5-1-.5a1.77,1.77,0,0,1-1.17-.68c-1-1.45,0-1.67.85-1.92,1.22-.34.92-.45,1.66-1.07s.9-1,.83-1.52-.56-.81.26-1.18.8-.29,1.09-1-.15-1.12.71-.72,1.42,1.51,1.32,1.62.24-.27.51.26.49.29.13,1-1.36,1.29-.13,1.2,1.84-.86,1.89-.22a6,6,0,0,1-.29,1.68s-.34-.46.52-.07.36,1.38.3,1.74-.09,0,1,.32-.06,1.49,0,1.76-.75,1.18-.75,1.18.7,1,1.21,1,.68,1.63,1,1.63,1.08,1,1.62,1.63.9.71.9,1.44-.63.9-1.08.45-1.35.18-1.35.18,0,.09.45.54-.82.63.09,1.26a3.45,3.45,0,0,0,1.89.63c.45.09.72,2.17.72,2.17l.64.54s-2.08,1.9-2.62.82-1.17-2.62-1.26-2.08a7.18,7.18,0,0,0,1.26,3c.36.36,2.71-.09,2.62.54s.72,1,1,1.35a6.88,6.88,0,0,1,.54.82s.54,1.71,1.08,2,.37,1.77,0,1.65-1.08-1-1.44-.93.63.7-.45.94a6.5,6.5,0,0,0-1.08.24c-.55.18,1.26,2,2,1.38a6.86,6.86,0,0,1,1.34-.84v1.35a6.6,6.6,0,0,1-1.79.82c-.45,0-1.35-.36-1.35,0s1.44.81,1.8,1.08,1.23.45,1.34,1-1.16,1-1.52,1-1.71-.82-1.35,0,.63.9,2.16,1.62a20.12,20.12,0,0,1,2.71,1.54s1.45.63,0,.63-1.62.45-1.62.45l1,.45-.18.63-.18.72s.9.18.9.64-.72.63-.72.63a13.59,13.59,0,0,1,1,1.42,13.81,13.81,0,0,0,1.09,1.54,6.78,6.78,0,0,1-2.17.81c-.72,0-1.08,1.53-.54,1.71a26.36,26.36,0,0,1,2.71,1.72,22.59,22.59,0,0,0,2,1.35c.54.27.6,1.22-.78,1.36s-2,0-2,.68,1.2,1.21,1.2,1.21-1.16-.94-1.2.68,3.1,1.63,3.15,2,.31,1.49.31,1.49-3.72-1-1.45,1.08a8.85,8.85,0,0,0,3.86,2.31S180.9,84.11,179,83s-2.9.45-1.45.22-.24-.35,0,1.41,1.19,1.08,2,2,2,2,.65,2.3-2.16,1.22-1.2,1.76,2.24.27,2.41,1.22a11.33,11.33,0,0,0,1.26,2.71l3.41,1.3-47.88.11A3.09,3.09,0,0,1,139.75,94c1.23-.54,2.31-2.16,1.23-2.44s-2.06-1.49-1.23-1.62,3.13-.41,3.13-.41l-1.24-2.14s-.93-1.22,0-1.49a16.4,16.4,0,0,1,2.41-.41V83.73a15,15,0,0,1-1.21-2c0-.27.42-.54,0-1a2.44,2.44,0,0,1,0-2.17l.27-.13.94-1.63c.27-.81,0-1.08,1.22-1.21l1.22-.14s3.23-.54,2.23-1.22a18.27,18.27,0,0,0-2.42-1.22c-.76-.4-2.65-1.22-1.57-1.89A15.08,15.08,0,0,1,148.12,70s1.87-1.9.6-1.9-.87-.81-1.21-1.35,1-.14,1.21-1-2.42-3-2.42-3a.69.69,0,0,1-.29-.93.68.68,0,0,1,.29-.29,4.52,4.52,0,0,1,1.95-.8s1.63-1.09,1.35-1.63-2.09-2.71-2.3-3.53,1.9-1.35,1.9-1.35a4.43,4.43,0,0,0-.48-1.22c-.33-.54-.62-1.49,0-1.76s1.74-1.71.88-1.89C147.71,48.93,148,47.67,148,47.67Z" transform="translate(-0.02 0.02)"/><path id="_08" data-name=" 08" class="cls-1" d="M207,96.11l1.27-1.41-2.44-1.63s-3.43-1.72-1.12-2.72.39-.41,0-1.63-2.42,0-2.42,0-1.66-2.37-.57-2.37,1.35-.81,1.22-1.76-1,0-1.22-.81-4.09-2.44-4.09-2.44a9.63,9.63,0,0,0,3.55,0c1.08-.4,0,0,1.11-.13s.78-1,0-2-.17-1.22,0-1.22a3,3,0,0,0,1.21-2.64c0-1.63-2.91-2.94-2.82-3.57s-.63-.54-1.72-1.81a7.9,7.9,0,0,0-1.89-1.71s2.26-.45,2.44-.81-2.89-1.09-3.61-1.36a1.43,1.43,0,0,0-1.18,0s-.81-1.17-.09-2,1,.18,2.26,0a1.84,1.84,0,0,0,1.71-1.9c0-.81-1.17-.36-1.62-1.08s-1.08,0-1.08,0a5.51,5.51,0,0,0,0-1.72c-.18-.45-1.27-.63-1.81-1.09s-1-.53-1.9-.08S188.69,57,188.69,57A4.44,4.44,0,0,1,191,57c1.17.31.36-.85.81-.94s1.18-.45,1-1.08a9.37,9.37,0,0,1-.46-2.15c0-.62-1-.2-1.23,0s-1.68-1.36-1.68-1.36a.32.32,0,0,1-.28.36h0c-.34,0-.13-1.21,0-1.47a3.6,3.6,0,0,0,.55-1.61c0-.67-.26-.38-1.17-1.06s-1.25.12-1.56.38a1.37,1.37,0,0,1-1.71-.44c-.37-.63.2-.7,1.57-1.72s.47-.39,1.6-.62a1.88,1.88,0,0,0,1.35-1.46l.62-.28c.63-.28.74-.45.73-.84a4.32,4.32,0,0,0-.32-1.78,14.49,14.49,0,0,0-1-1.46c-.23-.31-.74.19-1.43.74s-.49,1-.48,1.49-.58-.07-.58-.07a5.83,5.83,0,0,1-.69.94c-.46.49-1-.47-1-.47s.51-.52.76-.85a7.58,7.58,0,0,0,.55-.91,2.39,2.39,0,0,0-.28-1.23c-.31-.39-1.2,0-1.38,0s-.53-.46-.52-1,.42-.28.42-.28l1.64-1.14c1-.72.47-.59.82-.93s.51-.07.7-.43-.58-.64-.58-.64a5,5,0,0,1-.71-.89c-.15-.31.57-.85.79-1.17a1.43,1.43,0,0,0-.25-1.43c-.33-.54-.83.91-.83.91a5.43,5.43,0,0,0-.41-.88c-.23-.36-.63.69-.63.69h-1.48c-1.05,0-1.13-.1-1.66-.56s-1.15-.41-1.62-.8.13-.67.13-.67h.69a1.17,1.17,0,0,0,1.34-.82c.21-.62-.3-.91.12-1l.93-.29.27-.62.43-1.08a15.46,15.46,0,0,0-1.11-1.45c-.39-.4,0,.54-.53,0s-.35-.81-.35-.81a1.19,1.19,0,0,1-.88.38c-.51,0-.27.4-.55.77a.75.75,0,0,0-.19.64l-.69,0c-.7,0,0,0-.53.41s0,.93-.29,2-.38,0-1.19-.28-.39-.18-.16-.56.19-.64.21-1.94-.27-2-.06-1.68a1.49,1.49,0,0,0,.57.42l.2-1.12c.2-1.12-.73-1.08-.73-1.08s-.52-2.49-.53-2.7a19.35,19.35,0,0,1,.32-2c.1-.53-.15-.58-.44-1.23s-1.09,0-1.09,0a3.44,3.44,0,0,1-.17-1.56,2.29,2.29,0,0,0-.06-1.27c-.09-.54-.44,0-.58-.4s-1.17,0-1.75.63-.3,1.6-.45,2-.56.57-.36.68-.07.63,0,1.28a17.65,17.65,0,0,0,0,2.3c.16.62-.09.93-.45,1.77A3.62,3.62,0,0,0,172.5,23c0,.49.92,1.26.92,1.26s-.36.82-.91,1-.73.23-.89.52a4.92,4.92,0,0,0-.32.91l-.64-.38c-.64-.38-.79.63-.79.63q0-.64,0-1.29a.75.75,0,0,0-.4-.67l.09-.69a1.62,1.62,0,0,0-1.12.2c-.51.35.17.63-.3.76s-1-.18-1.52-.14a3.41,3.41,0,0,0-2.07,1,.52.52,0,0,0,.2.61c.34.27-.34.61-.34.61a4,4,0,0,0-.91.74,1.17,1.17,0,0,0,0,1c.1.21.91.61.91.61l.48.54-.41.61s-.87-.4-1,.41-.78.34-.91.81.2,1.22.54,1.22.95-.27,1.28.07a2.54,2.54,0,0,0,1.09.47,9.84,9.84,0,0,1-2,.61,4.22,4.22,0,0,1-2.74-.13s-.54.27-.54.6a1.19,1.19,0,0,0,.54,1c.4.27.88,1.15.68,1.22s-.55-.27-.21.07a1.49,1.49,0,0,0,.94.34s.76-1,1-.28,0,.34.27.68a.83.83,0,0,0,.74.27s.81-.81.41-.4-.41,1-1.69,1.08a12.31,12.31,0,0,0-2.1.27s-.82-.07-.34.47.4.41.81.55,1.83.13,1.42.4-1,.21-1.42.34a6.43,6.43,0,0,0-1,.54l.61.21,1.28.6.62.34s1.9-.34,2,.07-.61,1-1.55,1a9.11,9.11,0,0,0-3.12.81c-.47.27-1.42.54-1.56.81a1.91,1.91,0,0,0-.13,1c.07.2.27.61.27.61s-.75,0-.61.61,1.15.47,1.15.47.14,1,.41,1.15a4.57,4.57,0,0,0,1.22.14l1.94,1.49a6.27,6.27,0,0,1-2.41.54c-.82-.14-1.79-.41-2.25-.54s-2,.13-1.21,1.08A4.15,4.15,0,0,0,159.14,53c-.54,1-1.76.13-.54,1s1.09.13,1.22.81-1.24,1.22-1.7,1.49a12,12,0,0,1-1.42.62,1.13,1.13,0,0,0,0,1.27c.41.82,2.69-1.49,1.42.82s-2.23.4-1.28,2.3l.95,1.89a1.89,1.89,0,0,1,.33,1.36c-.06,1-1.28.27-1.21,1.08S159.69,67,159.69,67s-3.91,3.25-4,3.93a3.17,3.17,0,0,0,1.21,2.17c.61.54-.47-1.76-2.23,1s-4,2.7-2.61,3.79A10.47,10.47,0,0,0,156.9,80c2.1.41,2.91,2.71,0,2.71s-3.3-2-5.27,0-3.19,1-2,2,3,.55,1.37,1.9-2.34,1.22-1.85,2.3A18.52,18.52,0,0,0,151,91.65c.53.81-4.89,3-5.56,3.52s.89.85.89.85Z" transform="translate(-0.02 0.02)"/><path id="_09" data-name=" 09" class="cls-1" d="M189.08,52.59c.35-.81.27-1.14.95-1.12s2.49.35,2.8,0,.6-.32.88-1.24a2.24,2.24,0,0,1,.9-1.27h.29a1.17,1.17,0,0,1,.25-1.22c.53-.72.94-1.08,1.35-.71a6,6,0,0,1,.88,1.68s.49.13.39.47a1.22,1.22,0,0,1-.41.59s.74,1.21,1.07.65.12-.78.35-1.57.36-1,1.05-1.09.62,0,.65.87-.67.9.21,1.12.47-.6.88.22.45,1,.14,1.44a2.48,2.48,0,0,0-.47,1.22,4.33,4.33,0,0,0,.25.87s.54-.55,1-.44.64,1.17.64,1.17v1.31c0,.31.76.34.76.34s0,.4.82.61a2,2,0,0,0,1.22,0s1.42.27,1.28,1-.2,1.08-.61,1.08-1.22-.74-1.35,0a8.83,8.83,0,0,0-.14,1.36,2.82,2.82,0,0,1,.82,0c.2.07.2-.48.81,0s.74.34.81,1,0,.48-.88.55a17.22,17.22,0,0,1-1.76,0s-1.42.67-1.69,1.21,1.76.82,1.76.82-.81-1.09.81,0a15.75,15.75,0,0,0,2.46,1.4s-2,.61-.66,1.15,1,.27,1.35.54,1.9.88.88,1.49a3.29,3.29,0,0,0-1.22,1s2.17.4,1.16,1.15-.14,1.69.13,2.37-.47,1.62-1.08,1.49a14,14,0,0,1-2.56-1.75,3.69,3.69,0,0,1,1,1.77c.14.93-1.15.6.54,1.21s2.17-.34,1.69.6,2.24,1.83,1.29,2.24-1.67,1.22-2.52,1.22.55,1.49,1.26,1.76A2.91,2.91,0,0,1,211,82.77c.21.54,3.48,1.22,1.85,2.17s-2.94.27-3.31,1.22,2.1,1.89,2.1,1.89-1.52-.13-1,1.09,3.38,2,3.38,2,2,1.35,1.22,2-2.84.81-3,1.49,5.42-.14,6.43,0a5.31,5.31,0,0,1,2.25,1.3h-43.7s-.59-1,0-1.44a12.21,12.21,0,0,1,1.79-.94c1.09-.55,0-1.49,0-2.17s-.31-1.63,1.2-1.63,4.67-2.7,4.67-2.7a4,4,0,0,1-2.2-.68.9.9,0,0,1,.27-1.63,16.38,16.38,0,0,0,1.93-.81s1.24-1.35,1.21-1.76-1.21-1.08-1.21-1.08-1.8-.68-1.8-1.49-.4-1.76,0-1.63a15.91,15.91,0,0,0,3-.4s-1.71-1.36-1.21-1.76a2.48,2.48,0,0,1,1.21-.68,14.82,14.82,0,0,0,2.25-1.22l1.21-2.56a20.06,20.06,0,0,1-3.46,1.07c-.3-.13-.3-2.3.78-2.57s1.43-.41,2.68-.81-1.91,0-1.21-1.49,1.83-1.63,2.42-2.31-1.21-1.48-1.21-1.48c-1.19-1.77-.3-2.71,0-3a1.12,1.12,0,0,0,0-1.9c-1-.81-.06-1.22-.83-1.9s.83-1.21.83-1.21a1.73,1.73,0,0,0,1.21-.82C191,54.35,189.08,52.59,189.08,52.59Z" transform="translate(-0.02 0.02)"/><path id="_10" data-name=" 10" class="cls-1" d="M202.14,54.89c1-.7,1.62-.52,1.76-.88s.76-.15,1.11-1.17-.58-2,0-2.05,1.47,0,1.78.47l.3.52a4,4,0,0,1,.88-1c.4-.27,1,.69,1,.69l.85-1.23c.42-.59.8-1.21,0-1.26s-1.75,0-1.9-.51-.17.61-.51-.83a4.93,4.93,0,0,1-.12-2.82c.23-1-.75-1.93,0-1.65s.77-.2,1.55.59.8.07,1.48.44,1.24,1,1.79.87,1.8.23.33-.79l-1.35-.93-.11-.08a10.53,10.53,0,0,1-1.64-2.33c-.14-.64-.2.56-.36-.73s-.54-2.43.09-2.47.49-.77,1.15-.64.07-.13.72.89,1.17,1.56,2,.14,1.51-1.4,1-1.92-.76-.51-.5-1.15a5.32,5.32,0,0,0,.65-2.09,19,19,0,0,0,0-2c-.07-1-.72-.4,0-1s.72-.7.83-1.26-.21-1.65.65-.89,1.35,0,1.23,1.43a5.93,5.93,0,0,1-.83,2.48,1,1,0,0,0,.41.95c.27.21.08-.16.27.21a1.36,1.36,0,0,1,.17.86c0,.4.36.1.73.9a5.64,5.64,0,0,1,.54,2.25c0,.5-.27,1.46-.43,1.4s-.9.85-.65.83-.36-.58.25,0,.81,1.75,1.54.88a5,5,0,0,0,.88-1.48c.29-.51,0,.2.65-.55s.12-.6,1.2-.8,1.5-1,1.15.74a3,3,0,0,1-1.31,2.2s.46,1.09-.42,1.14-1.36.62-.27.84.34.75,1.71.4,1.43-1,2.39-1.87,2-1.24,1.9-.92.85,1-.46,1.55-1.51,1.09-1.51,1.09,1.27-.73,1.27-.09-.85.82-.43,1.54,1.5.42.73,1.62-.36,1.74-1.75,2.17-2-.67-1.8.47.11.63,1,.69,1.05.87,1.11,1.31-.19.41-.15.87,1.29.28,1.29.28a6.29,6.29,0,0,0,.7-1.77A1.39,1.39,0,0,1,228,48.35a4.32,4.32,0,0,1,.89.87c.26.41,1.36.19.55,1.36s-.5.31-1,.91-1.4.51-1.15,1a11.15,11.15,0,0,0,.68,1.1,7.79,7.79,0,0,1,2.26-.16c.86.13.12.41.15-1.13s-.21-3.11,1.12-2.12,1.33,1.31,1.33,1.31-.06-.56.4-.6.65.12.63.46-.11.63-.25.7a3.93,3.93,0,0,1-.75.13,4.66,4.66,0,0,1,1,.71c.29.31.43.76,0,1s-.53.11-.79.58a1.23,1.23,0,0,0-.25.82c0,.33.24.33.24.33a3.72,3.72,0,0,1,2.26-.22c.9.35,1.21-.15,1.73.26s2.42,1.85,2,2.21a10.5,10.5,0,0,1-1.27.81,3.49,3.49,0,0,1-1.44,0c-.45-.18-1.08.72-1.08.72a4,4,0,0,0,1.35.81,1.59,1.59,0,0,1,.9.73l-1.25.81h-1.81s-2.52-.54-3.16,0-1.26,1.44-.45,1.53,1.27-.45,1.54,0,1.17,1.09.81,1.54,1.71.81,2,1,1.45-.81,1.81,0a3.08,3.08,0,0,0,1.54,1.26s.72,1.63,1.08,1.63-.81,1-2,.9-2.89-.54-3.16-.54.31,2.19,1.73,2.36,1.61,1.07,2.34,1.61a6.19,6.19,0,0,1,1.14,1.09,5.28,5.28,0,0,1,1.19,2.16c.2,1.06-1.2,1.06-1.2,1.06V79s2.9-.72,2.42,0,1.73-2,2.25-1.62a8.38,8.38,0,0,1,1.21,2.52A4.61,4.61,0,0,1,246.74,82c.45,1.49-.09,1.34-.63,1.78s-1.23.08-1.79,1,0,.9,0,2-.74.73-1.28,1.09-2.18,0-2.18,0,.06,2.71,1.21,2.71,2.88-.91,3.46,0,2.2,3.07,2.2,3.07,2.15.6,4.25,1.21,1.68,1.28,1.68,1.28h-61s-1.15-2.31.34-2.86,1.64-1.26,1.2-2.52-2.33-2-1.2-2.53a17.47,17.47,0,0,1,2.41-.9V85.69c0-.9,1.25-.9,0-.9s-1.54-.18-2.39.18-2.39-1.24-2.25-1.16-.32-1.29-.32-1.29A20.43,20.43,0,0,0,193,82a7.06,7.06,0,0,1,1.2-.67s.69-.54,1.21-.9a14.52,14.52,0,0,1,3.46-.55l1.21.55s1.07-1.54,2.25-1.31a3.4,3.4,0,0,0,2.42-.86s-4.72-.36-5.77-.54-2.65,0-3.57-.54-1.49-1.27-1.21-1.63a2.71,2.71,0,0,1,1.21-.54s-.7-.54,0-1.45-.38-.54.71-.9a10.82,10.82,0,0,1,2.71-.34s-1.39-.33,0-.89,1.74.56,3.46,0,2.63.56,3.17,0S207,70,207,70s-1.25-.36-2.29-.72a1.69,1.69,0,0,1-1.21-1.08l1.21-2.71-3.22-1.62s-.9-1.43-.18-2.07,2.19-2.27,2.19-2.27l-2-2.49Z" transform="translate(-0.02 0.02)"/><path id="_11" data-name=" 11" class="cls-1" d="M277,94.8V93.05a1.83,1.83,0,0,0-.62-1.29c-.37-.44-.05-.63-.05-.63a3.15,3.15,0,0,0-1.15.36c-.49.29,0,.43-.37.89s0,.45-.42.54.16.66-.13.6-.36.43-.36.43l-1.26.27,1.06-1.56.29-.8s.25.16.27,0-.43-.63-.76-.7a5.57,5.57,0,0,0-1,0s1.49-1.92,1.83-2.55-.47-1.24-.47-1.24.22-.69.28-.9a5.25,5.25,0,0,0,.33-.77.94.94,0,0,0,0-.77.67.67,0,0,0-.78-.48c-.26,0-.36.22-.53.36a2.87,2.87,0,0,1-1.05.48,4.42,4.42,0,0,1-2-.33c-.57-.26-.24-.73,0-1.42a2.67,2.67,0,0,0,.28-1c0-.46.13-.16.3-.36a4.57,4.57,0,0,0,.82-2c.26-1.29-1.14-2.44-1.14-2.44v.31c0,.31-.33.33-.57.66a3.81,3.81,0,0,1-.83.72,4.87,4.87,0,0,0-.2-1.26c-.17-.4-.49-.12-.84.13s.37,1.51.37,1.51l-.09.61a5.14,5.14,0,0,1,.12,1.11,2.75,2.75,0,0,1-1,1.65c-.18.08-.52-.22-.8-.61s-.32,0-.32,0V78a33.26,33.26,0,0,0-.33-4.68,2.12,2.12,0,0,0-1.06-1.2s.09.73.16,1.08-.6.88-.6.88a1.47,1.47,0,0,0,0-.88c-.11-.68-.56-.38-.56-.38s-.22-.37-.17-.55-.16-.57-.76-.6-.44.21-.37.65.92.49.92.49l-1,.71L261.33,72c-1.19-1.54-1.68-1.25-1.68-1.25s.51-.46.82-.78-.06-.35-.38-.58a2.22,2.22,0,0,1-.44-.37l-3.17-1c-1.55-.49-2-1.12-2-1.3s.26-.87.56-.89.83.82,1.17.88.32-.15.41-.78.11-.54.48-.58.76.83,1.27,1,.19-.49.23-.86.16-.54.67-.58.49.57.84.64.33-1,.33-1l.4-.29a3.2,3.2,0,0,0-.48-1.06c-.48-.85-.75-.62-1.19-1s.06-.4.28-.71.24-.5.16-1.06a1.08,1.08,0,0,0-1-.83c-.32,0-.52.27-.8.26s-.61-.38-.39-.51-.07-1-.89-1.28a15.94,15.94,0,0,1-1.9-.57,10.07,10.07,0,0,1-2.28-2.14c-.71-1-.63-1,0-1.5s.8-.23.8-.23a4,4,0,0,1,.14.77c0,.28.37.41.67.57a4.38,4.38,0,0,1,.81.8,3.81,3.81,0,0,0,1-.52c.26-.26.72-.11,1.11,0a1.44,1.44,0,0,1,.68.56,7.48,7.48,0,0,0,1.08,1.1c.44.3.72.15,1.37-.17s.3-.54.05-.82-1.19-.58-1.35-1,.51-.84.77-1.1a.52.52,0,0,0,.08-.73.3.3,0,0,0-.08-.08c-.23-.26-1.19-.3-1.84-.53s-.56-.41-1.1-.53-1.17-.14-1.68-.2a1,1,0,0,0-.84.34l-.47-.15.41-.78a1,1,0,0,0,0-.8c0-.14.14-.52.48-.49s1.66.69,1.87.69a1.35,1.35,0,0,0,.75-.46c.2-.24.07-.82-.2-1.27s-1.07-.76-1.58-1.17a8.44,8.44,0,0,0-1.79-1.1c-.73-.35-.7-.1-.7-.1s-.31-.23.07-.34a7.15,7.15,0,0,0,1.36-.35c.75-.29.31-.42.31-.42a3,3,0,0,0,.76-.48,1.62,1.62,0,0,0,.53-1c.05-.45-.24-.47-.41-.61a7.46,7.46,0,0,0-.92-.51.23.23,0,0,1-.13-.3l0,0c.07-.1.37.17.48.19a1.38,1.38,0,0,0,.84-.33c.4-.29-.25-.35-.84-.51s-.22.06-.43.13-.29-.29-.48-.41a.93.93,0,0,0-.73.1c-.11.07-.51.57-.76.77a.51.51,0,0,1-.62,0c-.17-.08-.27-.32-.35-.7a.57.57,0,0,1,.43-.67h0c.21,0,.34,0,.61-.44a4.43,4.43,0,0,1,1.33-.93c.39-.26.28-.86.16-1.12s-.68-.49-1-.63a5.2,5.2,0,0,1-1.51-1.17,2.09,2.09,0,0,0-1.28-.78c-.28-.07-.23,0-.35-.5s.29-.72.34-1.07-.19-.29-.69-.48-.2-.23-.36-.92.09-.53-.46-.88-.36-.71-.66-1-.29,0-.59.08a1.16,1.16,0,0,0-.6,1.14c.07.5-.45.55-.94,1.1s-.26.49-.25,1.41a1.16,1.16,0,0,0,.72,1.14h-1c-.54,0-.45.1-.75.29a.76.76,0,0,1-.69,0s-.1.66.28.84c.65.3.08.56-.47,1.2s-.3,1.54-.21,2.15-1,0-1.66-.33-.52-.3-1.14-.2-.21.4-.07,1.43.81.59,1.17,1,.11.41-.19.94a3.52,3.52,0,0,1-.49.72l-.61.66a1.2,1.2,0,0,0,0,1.5c.36.57.28.25,1.19-.52a2.05,2.05,0,0,1,2-.61c.65.06.8.59.91,1.12s-.54,1-.84,1.36-.52.67-.87.64-.36-.32-.73-.31h-1.5a1.43,1.43,0,0,0-1.38.68c-.33.56-.62.59-.62.59a2.07,2.07,0,0,0-.85-.23,1.8,1.8,0,0,0-1,.14c-.52.16.31.92.48,2a2.1,2.1,0,0,0,1,1.54c.31.23.45-.09,1.15-.84s0,0,.37-.19.68-.06,1.09.58.42.26,1.4.08.83,0,.83,0a2.82,2.82,0,0,1,0,.82,7.59,7.59,0,0,1-.22.78,8,8,0,0,1-1.46.35,6.53,6.53,0,0,0-1.53.18c-.44.13-.54.49-1,1s-.58.33-1.2.5-.66.08-1.22,1c-1.85.34-4.47,1.2-1.55,3.63.36.3-2.6.81-4.54.43s-1.53,2.37-.14,2.76c2,.56,1.81,1.69,2.8,2.32s-.18,1.9-.38,1.9-2.89.47-2.41.54c-.89,1,3,2.8,2.52,3.47-.32.47-3.68-.68-4.77-.21-.46.2-.74,1.07,0,2s0,2.35,0,2.35,1.61.9-.92.18-1.31,1.4-5,1.45c-1,0-.55,2.49,1,2.7,1.13.16,0,0,2.47,0s2.42.55,2.42.55v2.37a7.12,7.12,0,0,0-2.42.8c-1.13.65.42.44,1.21,1.34s-.43,2-1.21,2-1.75-.91-3-.91a1.75,1.75,0,0,0-1.68.88,19.67,19.67,0,0,0,0,3.07c.16,1.08,1.84.36,2.42.54a16.57,16.57,0,0,1,2.25,1.26,7.48,7.48,0,0,1-3,1.45c-1.45.18-.45,2.49-.45,2.49h53.53a3.72,3.72,0,0,0,1.24-.5C277.25,95.35,277,95.5,277,94.8Z" transform="translate(-0.02 0.02)"/></g></svg>