<svg id="soundcloud" xmlns="http://www.w3.org/2000/svg" viewBox="0 0 104.47 104.47"><defs><style>.cls-1{fill:#fff;}</style></defs><title>soundcloud</title><path class="cls-1" d="M43.54,73h0a1.74,1.74,0,0,1-1.74-1.75l0-38.35a1.74,1.74,0,0,1,1.75-1.74h0a1.74,1.74,0,0,1,1.74,1.75l0,38.35A1.74,1.74,0,0,1,43.54,73Z" transform="translate(0.14)"/><path class="cls-1" d="M43.54,73.53h0a2.25,2.25,0,0,1-2.25-2.25l0-38.35a2.25,2.25,0,0,1,2.25-2.24,2.22,2.22,0,0,1,1.59.66,2.2,2.2,0,0,1,.65,1.59l0,38.35A2.24,2.24,0,0,1,43.54,73.53Zm0-41.84a1.25,1.25,0,0,0-1.25,1.25l0,38.35a1.23,1.23,0,0,0,1.25,1.24v0a1.25,1.25,0,0,0,1.24-1.24l0-38.35A1.24,1.24,0,0,0,43.58,31.69Z" transform="translate(0.14)"/><path class="cls-1" d="M82.79,48.31a14.13,14.13,0,0,0-17.23-8.57c-3-4.9-5.58-9.19-15.33-9.18a2.11,2.11,0,1,0,0,4.21c7.42,0,11.63,5.43,13.26,10.85a9.79,9.79,0,0,1,15.8,6.57h.06a8.69,8.69,0,1,1,0,17.38H77.24c-3.34-.1-3.67,1.12-3.67,2.29a2.14,2.14,0,0,0,1.6,2s4.18,0,4.18,0a13,13,0,0,0,3.44-25.61Z" transform="translate(0.14)"/><path class="cls-1" d="M79.35,74.42c-2.91,0-3.92,0-4.31-.1v0a2.62,2.62,0,0,1-2-2.49,2.51,2.51,0,0,1,.68-1.92c.65-.64,1.8-.92,3.5-.87h2.1a8.19,8.19,0,1,0,0-16.38h-.44l-.12-.44A9.25,9.25,0,0,0,69.57,44a9.14,9.14,0,0,0-5.76,2l-.58.45-.21-.7c-.75-2.46-3.86-10.49-12.79-10.5a2.61,2.61,0,1,1,0-5.21h0c9.78,0,12.61,4.4,15.52,9.1A14.61,14.61,0,0,1,83.17,47.9a13.54,13.54,0,0,1-3.82,26.52Zm-4.09-1c.37,0,2.61,0,4.09,0a12.54,12.54,0,0,0,3.31-24.63l-.24-.06-.09-.24a13.7,13.7,0,0,0-12.76-8.83,13.55,13.55,0,0,0-3.86.56l-.37.11-.3-.49c-2.92-4.71-5.44-8.78-14.77-8.78a1.61,1.61,0,1,0,0,3.21c6.28,0,11.3,3.93,13.53,10.54a10.28,10.28,0,0,1,16,6.89,9.19,9.19,0,0,1-.38,18.37H77.24a4.19,4.19,0,0,0-2.8.58,1.57,1.57,0,0,0-.37,1.21A1.62,1.62,0,0,0,75.26,73.37Z" transform="translate(0.14)"/><path class="cls-1" d="M15.6,73a1.74,1.74,0,0,1-1.74-1.74l0-8.07a1.75,1.75,0,0,1,1.73-1.76h0a1.74,1.74,0,0,1,1.74,1.74l.05,8.07A1.75,1.75,0,0,1,15.61,73Z" transform="translate(0.14)"/><path class="cls-1" d="M15.62,73.54h0a2.25,2.25,0,0,1-2.24-2.24l0-8.07A2.17,2.17,0,0,1,14,61.64a2.24,2.24,0,0,1,3.84,1.57l.05,8.06a2.26,2.26,0,0,1-.65,1.6,2.23,2.23,0,0,1-1.58.67ZM15.56,62a1.25,1.25,0,0,0-1.25,1.26l0,8.07a1.25,1.25,0,0,0,1.24,1.24h0a1.3,1.3,0,0,0,.88-.37,1.25,1.25,0,0,0,.36-.89l-.05-8.07A1.25,1.25,0,0,0,15.56,62Z" transform="translate(0.14)"/><path class="cls-1" d="M22.45,73a1.76,1.76,0,0,1-1.75-1.75l-.05-15.64A1.75,1.75,0,0,1,22.4,53.9h0a1.75,1.75,0,0,1,1.75,1.74l.05,15.64A1.76,1.76,0,0,1,22.46,73Z" transform="translate(0.14)"/><path class="cls-1" d="M22.46,73.54h0A2.26,2.26,0,0,1,20.2,71.3l-.05-15.64a2.27,2.27,0,0,1,2.24-2.26,2.26,2.26,0,0,1,2.26,2.24l.05,15.64A2.26,2.26,0,0,1,22.46,73.54ZM22.4,54.4a1.2,1.2,0,0,0-.88.37,1.23,1.23,0,0,0-.37.88l.05,15.64a1.25,1.25,0,0,0,1.25,1.25h0a1.26,1.26,0,0,0,1.24-1.26l-.05-15.63A1.25,1.25,0,0,0,22.4,54.4Z" transform="translate(0.14)"/><path class="cls-1" d="M29.3,73a1.74,1.74,0,0,1-1.74-1.75l0-25.25a1.74,1.74,0,0,1,1.74-1.75h0A1.75,1.75,0,0,1,31,46l.05,25.25A1.76,1.76,0,0,1,29.31,73Z" transform="translate(0.14)"/><path class="cls-1" d="M29.31,73.54h0a2.25,2.25,0,0,1-2.24-2.25L27,46a2.25,2.25,0,1,1,4.49,0l.05,25.25a2.19,2.19,0,0,1-.66,1.59A2.23,2.23,0,0,1,29.31,73.54Zm-.06-28.75A1.24,1.24,0,0,0,28,46l0,25.25a1.25,1.25,0,0,0,1.24,1.25h0a1.32,1.32,0,0,0,.88-.37,1.27,1.27,0,0,0,.36-.88L30.5,46A1.25,1.25,0,0,0,29.25,44.79Z" transform="translate(0.14)"/><path class="cls-1" d="M36.15,73h0a1.76,1.76,0,0,1-1.75-1.75l.05-33.55A1.75,1.75,0,0,1,36.2,36h0a1.74,1.74,0,0,1,1.74,1.75l0,33.55A1.76,1.76,0,0,1,36.15,73Z" transform="translate(0.14)"/><path class="cls-1" d="M36.15,73.54h0a2.27,2.27,0,0,1-2.25-2.26L34,37.74a2.25,2.25,0,1,1,4.49,0l0,33.55A2.26,2.26,0,0,1,36.15,73.54Zm.05-37.05A1.25,1.25,0,0,0,35,37.74L34.9,71.29a1.26,1.26,0,0,0,1.25,1.25v0a1.26,1.26,0,0,0,1.25-1.25l0-33.55A1.24,1.24,0,0,0,36.2,36.49Z" transform="translate(0.14)"/><path class="cls-1" d="M98.86,13.57a11.78,11.78,0,0,0-8.11-8.11,139.6,139.6,0,0,0-77.32,0,11.78,11.78,0,0,0-8.1,8.11,139.41,139.41,0,0,0,0,77.32A11.93,11.93,0,0,0,13.43,99a139.36,139.36,0,0,0,38.66,5.47A139.68,139.68,0,0,0,90.75,99a11.93,11.93,0,0,0,8.11-8.11A139.41,139.41,0,0,0,98.86,13.57ZM92.15,89a4.89,4.89,0,0,1-3.33,3.33,132.53,132.53,0,0,1-73.45,0A4.89,4.89,0,0,1,12,89a132.35,132.35,0,0,1,0-73.45,4.9,4.9,0,0,1,3.33-3.34,132.53,132.53,0,0,1,73.45,0,4.9,4.9,0,0,1,3.33,3.34A132.35,132.35,0,0,1,92.15,89Z" transform="translate(0.14)"/></svg>