<?xml version="1.0" encoding="utf-8"?>
<!-- Generator: Adobe Illustrator 23.0.4, SVG Export Plug-In . SVG Version: 6.00 Build 0)  -->
<svg version="1.1" id="vimeo" xmlns="http://www.w3.org/2000/svg" xmlns:xlink="http://www.w3.org/1999/xlink" x="0px" y="0px"
	 viewBox="0 0 104.47 104.95" style="enable-background:new 0 0 104.47 104.95;" xml:space="preserve">
<style type="text/css">
	.st0{fill:#FFFFFF;}
</style>
<path class="st0" d="M99,14.06c-1.14-3.94-4.17-6.97-8.11-8.11c-25.3-7.29-52.03-7.29-77.32,0c-3.94,1.14-6.97,4.17-8.1,8.11
	c-7.29,25.29-7.29,52.03,0,77.32c1.12,3.88,4.22,6.99,8.11,8.11c12.65,3.64,25.65,5.47,38.66,5.47c13,0,26.01-1.82,38.66-5.47
	c3.88-1.12,6.99-4.22,8.11-8.11C106.29,66.08,106.29,39.35,99,14.06z M92.29,89.44c-0.46,1.59-1.74,2.87-3.33,3.33
	c-24.03,6.92-49.43,6.92-73.46,0c-1.59-0.46-2.87-1.74-3.33-3.33c-6.92-24.03-6.92-49.43,0-73.46c0.46-1.59,1.74-2.87,3.33-3.33
	C27.52,9.2,39.88,7.47,52.23,7.47c12.36,0,24.71,1.73,36.73,5.19c1.6,0.46,2.87,1.74,3.33,3.33C99.22,40.02,99.22,65.42,92.29,89.44
	z"/>
<path class="st0" d="M81.33,41.55c-3.4,19.14-22.38,35.34-28.09,39.04c-5.71,3.7-10.92-1.48-12.81-5.4
	c-2.16-4.47-8.64-28.7-10.34-30.71c-1.7-2-6.79,2.01-6.79,2.01l-2.47-3.24c0,0,10.34-12.35,18.21-13.89
	c8.34-1.64,8.33,12.81,10.34,20.83c1.94,7.76,3.25,12.2,4.94,12.2c1.7,0,4.94-4.33,8.49-10.96c3.55-6.64-0.15-12.5-7.1-8.33
	C58.49,26.42,84.72,22.42,81.33,41.55z"/>
</svg>
