<?xml version="1.0" encoding="utf-8"?>
<!-- Generator: Adobe Illustrator 23.0.4, SVG Export Plug-In . SVG Version: 6.00 Build 0)  -->
<svg version="1.1" id="vk" xmlns="http://www.w3.org/2000/svg" xmlns:xlink="http://www.w3.org/1999/xlink" x="0px" y="0px"
	 viewBox="0 0 104.47 104.47" style="enable-background:new 0 0 104.47 104.47;" xml:space="preserve">
<style type="text/css">
	.st0{fill:#FFFFFF;}
</style>
<path id="XMLID_2_" class="st0" d="M99,13.57c-1.14-3.94-4.17-6.97-8.11-8.11c-25.3-7.29-52.03-7.29-77.32,0
	C9.63,6.6,6.6,9.63,5.47,13.57c-7.29,25.29-7.29,52.03,0,77.32c1.12,3.88,4.22,6.99,8.11,8.11c12.65,3.64,25.65,5.47,38.66,5.47
	c13,0,26.01-1.82,38.66-5.47c3.88-1.12,6.99-4.22,8.11-8.11C106.29,65.6,106.29,38.86,99,13.57z M92.29,88.96
	c-0.46,1.59-1.74,2.87-3.33,3.33c-24.03,6.92-49.43,6.92-73.46,0c-1.59-0.46-2.87-1.74-3.33-3.33c-6.92-24.03-6.92-49.43,0-73.46
	c0.46-1.59,1.74-2.87,3.33-3.33c12.01-3.46,24.37-5.19,36.73-5.19c12.36,0,24.71,1.73,36.73,5.19c1.6,0.46,2.87,1.74,3.33,3.33
	C99.22,39.53,99.22,64.93,92.29,88.96z"/>
<path id="XMLID_5_" class="st0" d="M82.37,66.71c-0.08-0.16-0.15-0.3-0.21-0.41c-1.09-1.97-3.18-4.38-6.26-7.24l-0.07-0.07
	l-0.03-0.03l-0.03-0.03h-0.03c-1.4-1.33-2.28-2.23-2.65-2.69c-0.68-0.87-0.83-1.76-0.46-2.65c0.26-0.68,1.25-2.11,2.95-4.29
	c0.9-1.16,1.61-2.09,2.13-2.78c3.78-5.02,5.42-8.24,4.92-9.63l-0.2-0.33c-0.13-0.2-0.47-0.38-1.02-0.54
	c-0.55-0.16-1.25-0.19-2.1-0.08l-9.44,0.07c-0.15-0.05-0.37-0.05-0.66,0.02c-0.28,0.07-0.43,0.1-0.43,0.1l-0.16,0.08l-0.13,0.1
	c-0.11,0.07-0.23,0.18-0.36,0.34c-0.13,0.16-0.24,0.35-0.33,0.57c-1.03,2.64-2.2,5.1-3.51,7.37c-0.81,1.35-1.55,2.53-2.23,3.52
	c-0.68,0.99-1.24,1.73-1.7,2.19c-0.46,0.47-0.87,0.85-1.25,1.13c-0.37,0.28-0.66,0.4-0.85,0.36c-0.2-0.04-0.38-0.09-0.56-0.13
	c-0.31-0.2-0.55-0.46-0.74-0.8c-0.19-0.34-0.31-0.76-0.38-1.28c-0.07-0.51-0.1-0.96-0.11-1.33c-0.01-0.37-0.01-0.9,0.02-1.57
	c0.02-0.68,0.03-1.14,0.03-1.38c0-0.83,0.02-1.73,0.05-2.7c0.03-0.97,0.06-1.74,0.08-2.31c0.02-0.57,0.03-1.17,0.03-1.8
	c0-0.63-0.04-1.13-0.11-1.49c-0.08-0.36-0.19-0.71-0.34-1.05c-0.15-0.34-0.38-0.6-0.67-0.79c-0.29-0.19-0.66-0.33-1.1-0.44
	c-1.16-0.26-2.63-0.4-4.42-0.43c-4.06-0.04-6.67,0.22-7.83,0.79c-0.46,0.24-0.87,0.57-1.24,0.98c-0.39,0.48-0.45,0.74-0.16,0.79
	c1.31,0.2,2.24,0.67,2.78,1.41l0.2,0.39c0.15,0.28,0.31,0.79,0.46,1.51c0.15,0.72,0.25,1.52,0.29,2.39c0.11,1.59,0.11,2.96,0,4.1
	c-0.11,1.14-0.21,2.02-0.31,2.65c-0.1,0.63-0.25,1.15-0.44,1.54c-0.2,0.39-0.33,0.63-0.39,0.72c-0.07,0.09-0.12,0.14-0.16,0.16
	c-0.28,0.11-0.58,0.16-0.88,0.16c-0.31,0-0.68-0.15-1.11-0.46c-0.44-0.31-0.89-0.73-1.36-1.26c-0.47-0.54-1-1.28-1.59-2.24
	c-0.59-0.96-1.2-2.1-1.83-3.41l-0.52-0.95c-0.33-0.61-0.78-1.5-1.34-2.67c-0.57-1.17-1.07-2.3-1.51-3.39
	c-0.17-0.46-0.44-0.81-0.79-1.05l-0.16-0.1c-0.11-0.09-0.28-0.18-0.52-0.28c-0.24-0.1-0.49-0.17-0.75-0.21l-8.98,0.07
	c-0.92,0-1.54,0.21-1.87,0.62l-0.13,0.2c-0.07,0.11-0.1,0.28-0.1,0.52c0,0.24,0.07,0.54,0.2,0.88c1.31,3.08,2.74,6.05,4.28,8.91
	s2.88,5.17,4.01,6.91c1.14,1.75,2.29,3.4,3.47,4.95c1.18,1.55,1.96,2.55,2.34,2.98c0.38,0.44,0.68,0.76,0.9,0.98l0.82,0.79
	c0.52,0.52,1.29,1.15,2.31,1.88c1.02,0.73,2.14,1.45,3.38,2.16c1.23,0.71,2.67,1.29,4.31,1.74c1.64,0.45,3.23,0.63,4.78,0.54h3.77
	c0.76-0.07,1.34-0.31,1.74-0.72l0.13-0.16c0.09-0.13,0.17-0.33,0.25-0.61c0.08-0.27,0.11-0.57,0.11-0.9
	c-0.02-0.94,0.05-1.79,0.21-2.54c0.16-0.75,0.35-1.32,0.56-1.7c0.21-0.38,0.44-0.7,0.7-0.97c0.26-0.26,0.45-0.42,0.56-0.48
	c0.11-0.05,0.2-0.09,0.26-0.11c0.52-0.17,1.14-0.01,1.85,0.51c0.71,0.51,1.38,1.15,2,1.9c0.62,0.75,1.37,1.6,2.24,2.54
	c0.87,0.94,1.64,1.64,2.29,2.1l0.66,0.39c0.44,0.26,1.01,0.5,1.7,0.72c0.7,0.22,1.31,0.27,1.83,0.16L79.83,70
	c0.83,0,1.48-0.14,1.93-0.41c0.46-0.27,0.73-0.57,0.82-0.9c0.09-0.33,0.09-0.7,0.02-1.11C82.52,67.16,82.44,66.87,82.37,66.71z"/>
</svg>
